<?xml version="1.0" encoding="UTF-8" standalone="no"?>
<!-- Created with Inkscape (http://www.inkscape.org/) -->

<svg
   xmlns:dc="http://purl.org/dc/elements/1.1/"
   xmlns:cc="http://creativecommons.org/ns#"
   xmlns:rdf="http://www.w3.org/1999/02/22-rdf-syntax-ns#"
   xmlns:svg="http://www.w3.org/2000/svg"
   xmlns="http://www.w3.org/2000/svg"
   xmlns:sodipodi="http://sodipodi.sourceforge.net/DTD/sodipodi-0.dtd"
   xmlns:inkscape="http://www.inkscape.org/namespaces/inkscape"
   width="48"
   height="44.107578"
   viewBox="0 0 47.999998 44.107576"
   id="svg4193"
   version="1.1"
   inkscape:version="0.91 r13725"
   sodipodi:docname="blog-hover.svg">
  <defs
     id="defs4195" />
  <sodipodi:namedview
     id="base"
     pagecolor="#ffffff"
     bordercolor="#666666"
     borderopacity="1.0"
     inkscape:pageopacity="0.0"
     inkscape:pageshadow="2"
     inkscape:zoom="0.35"
     inkscape:cx="-1019.251"
     inkscape:cy="228.03572"
     inkscape:document-units="px"
     inkscape:current-layer="layer1"
     showgrid="false"
     fit-margin-top="0"
     fit-margin-left="0"
     fit-margin-right="0"
     fit-margin-bottom="0"
     inkscape:window-width="1366"
     inkscape:window-height="664"
     inkscape:window-x="-8"
     inkscape:window-y="-8"
     inkscape:window-maximized="1"
     units="px" />
  <metadata
     id="metadata4198">
    <rdf:RDF>
      <cc:Work
         rdf:about="">
        <dc:format>image/svg+xml</dc:format>
        <dc:type
           rdf:resource="http://purl.org/dc/dcmitype/StillImage" />
        <dc:title></dc:title>
      </cc:Work>
    </rdf:RDF>
  </metadata>
  <g
     inkscape:label="Layer 1"
     inkscape:groupmode="layer"
     id="layer1"
     transform="translate(-626.12862,-716.29034)">
    <g
       transform="matrix(0.49552756,0,0,0.49552756,587.60718,621.54139)"
       id="g29"
       inkscape:export-filename="W:\BrandAffair-v5\web\icons\g29.png"
       inkscape:export-xdpi="50.666668"
       inkscape:export-ydpi="50.666668">
      <g
         id="g31">
        <path
           style="clip-rule:evenodd;fill:#fff200;fill-rule:evenodd"
           inkscape:connector-curvature="0"
           d="m 153.9,253.6 c 0,-0.6 0.3,-1.4 0.6,-1.9 0.8,-1.5 1.9,-2.8 2.6,-4.3 5.2,-11.1 2.3,-23.3 -7.5,-31.3 -13.7,-11.3 -35.3,-11 -48.8,0.6 -8.1,7 -11.4,17.6 -8.1,27.3 3.1,9.2 9.7,15 18.6,18.4 8,3.1 16.2,3.1 24.4,1.3 0.5,-0.1 1.1,-0.2 1.5,0 5.3,2.8 11,4.3 16.7,5.8 1.7,0.4 3.4,0.7 5.5,1.2 -0.7,-1.5 -1.2,-2.6 -1.7,-3.8 -1.9,-4.3 -3.6,-8.6 -3.8,-13.3 z"
           id="path33" />
        <path
           style="fill:#231f20"
           inkscape:connector-curvature="0"
           d="m 162.9,273.5 -3.9,-0.8 c -0.6,-0.1 -1.2,-0.3 -1.8,-0.4 -1.3,-0.3 -2.5,-0.5 -3.7,-0.8 -5.6,-1.4 -11.5,-3 -17,-5.8 -0.1,0 -0.2,0 -0.4,0.1 -3.8,0.8 -7.5,1.2 -11,1.2 -5.1,0 -10,-0.9 -14.5,-2.6 -10,-3.8 -16.6,-10.5 -19.8,-19.6 -3.5,-10.4 -0.1,-21.9 8.7,-29.5 7,-6 16.3,-9.3 26.1,-9.3 9.4,0 18.4,3.1 25.3,8.8 10.5,8.6 13.6,21.8 8,33.7 -0.5,1 -1.1,1.9 -1.6,2.8 -0.4,0.6 -0.7,1.1 -1,1.7 -0.3,0.6 -0.3,0.8 -0.3,0.8 0.3,4.4 1.9,8.4 3.7,12.5 0.3,0.8 0.7,1.5 1.1,2.4 l 2.1,4.8 z m -26.4,-11.9 c 0.6,0 1.2,0.1 1.6,0.4 5.1,2.7 10.6,4.2 16.3,5.6 0.5,0.1 1,0.2 1.5,0.4 0,-0.1 -0.1,-0.2 -0.1,-0.3 -1.9,-4.5 -3.7,-8.9 -4,-13.9 -0.1,-0.9 0.2,-1.9 0.8,-3 0.4,-0.7 0.8,-1.3 1.2,-1.9 0.5,-0.8 1,-1.5 1.4,-2.3 4.8,-10.2 2.1,-21.5 -6.9,-28.9 -6.2,-5.1 -14.2,-7.9 -22.7,-7.9 -8.8,0 -17.2,3 -23.5,8.4 -7.5,6.5 -10.5,16.4 -7.5,25.2 2.8,8.1 8.5,13.7 17.4,17.2 4.1,1.6 8.4,2.4 13.1,2.4 3.2,0 6.6,-0.4 10.2,-1.1 0.5,-0.2 0.9,-0.3 1.2,-0.3 z"
           id="path35" />
      </g>
      <g
         id="g37">
        <circle
           style="clip-rule:evenodd;fill:#05ccb9;fill-rule:evenodd"
           cx="110.3"
           cy="235.89999"
           r="4.8000002"
           id="circle39" />
        <circle
           style="clip-rule:evenodd;fill:#05ccb9;fill-rule:evenodd"
           cx="125.1"
           cy="235.89999"
           r="4.8000002"
           id="circle41" />
        <circle
           style="clip-rule:evenodd;fill:#05ccb9;fill-rule:evenodd"
           cx="140"
           cy="235.89999"
           r="4.8000002"
           id="circle43" />
      </g>
    </g>
  </g>
</svg>
