<?xml version="1.0" encoding="UTF-8" standalone="no"?>
<!-- Created with Inkscape (http://www.inkscape.org/) -->

<svg
   xmlns:dc="http://purl.org/dc/elements/1.1/"
   xmlns:cc="http://creativecommons.org/ns#"
   xmlns:rdf="http://www.w3.org/1999/02/22-rdf-syntax-ns#"
   xmlns:svg="http://www.w3.org/2000/svg"
   xmlns="http://www.w3.org/2000/svg"
   xmlns:sodipodi="http://sodipodi.sourceforge.net/DTD/sodipodi-0.dtd"
   xmlns:inkscape="http://www.inkscape.org/namespaces/inkscape"
   width="50"
   height="50"
   viewBox="0 0 49.999997 49.999997"
   id="svg5118"
   version="1.1"
   inkscape:version="0.91 r13725"
   sodipodi:docname="career-affair-hover.svg">
  <defs
     id="defs5120" />
  <sodipodi:namedview
     id="base"
     pagecolor="#ffffff"
     bordercolor="#666666"
     borderopacity="1.0"
     inkscape:pageopacity="0.0"
     inkscape:pageshadow="2"
     inkscape:zoom="2"
     inkscape:cx="-3.366121"
     inkscape:cy="46.122031"
     inkscape:document-units="px"
     inkscape:current-layer="layer1"
     showgrid="false"
     units="px"
     inkscape:window-width="1366"
     inkscape:window-height="705"
     inkscape:window-x="-8"
     inkscape:window-y="-8"
     inkscape:window-maximized="1" />
  <metadata
     id="metadata5123">
    <rdf:RDF>
      <cc:Work
         rdf:about="">
        <dc:format>image/svg+xml</dc:format>
        <dc:type
           rdf:resource="http://purl.org/dc/dcmitype/StillImage" />
        <dc:title></dc:title>
      </cc:Work>
    </rdf:RDF>
  </metadata>
  <g
     inkscape:label="Layer 1"
     inkscape:groupmode="layer"
     id="layer1"
     transform="translate(0,-1002.3622)">
    <g
       transform="matrix(2.0046188,0,0,2.0046188,-338.03647,783.14651)"
       id="icon-career-affair-hover"
       inkscape:label="#g4716">
      <path
         d="m 181.5,126.6 c 3.5,-0.2 6.3,-3.1 6.3,-6.7 0,-3.7 -3,-6.7 -6.7,-6.7 -3.7,0 -6.7,3 -6.7,6.7 0,1.5 0.5,2.9 1.3,4 0,0 0,0 0,0.1 l 3.7,6.5 0,2.4 c 0,0.2 0.2,0.4 0.4,0.4 l 2.4,0 c 0.2,0 0.4,-0.2 0.4,-0.4 l 0,-2.3 2.1,-3.6 c 0.1,-0.2 0,-0.4 -0.1,-0.5 -0.2,-0.1 -0.4,0 -0.5,0.1 l -2.1,3.5 -0.6,0 0,-3.5 z"
         id="path4718"
         inkscape:connector-curvature="0"
         style="fill:#040606" />
      <path
         d="m 180.1,130 -2.5,-4.4 c 0.9,0.6 2,1 3.2,1 l 0,3.4 -0.7,0 z"
         id="path4720"
         inkscape:connector-curvature="0"
         style="fill:#05ccb9" />
      <path
         d="m 187,119.9 c 0,2.7 -1.8,5 -4.2,5.7 0.2,-0.3 0.4,-0.7 0.6,-1.1 0.6,-1.2 0.9,-2.9 0.9,-4.6 0,-1.7 -0.3,-3.4 -0.9,-4.6 -0.2,-0.4 -0.4,-0.8 -0.6,-1.1 2.4,0.7 4.2,3 4.2,5.7"
         id="path4722"
         inkscape:connector-curvature="0"
         style="fill:#fff200" />
      <path
         d="m 181.1,114 c 0.6,0 1.2,0.6 1.7,1.6 0.5,1.1 0.8,2.7 0.8,4.3 0,1.6 -0.3,3.2 -0.8,4.3 -0.5,1 -1.1,1.6 -1.7,1.6 -0.6,0 -1.2,-0.6 -1.7,-1.6 -0.5,-1.1 -0.8,-2.7 -0.8,-4.3 0,-1.2 0.1,-2.3 0.4,-3.3 0.1,-0.2 -0.1,-0.4 -0.3,-0.5 -0.2,-0.1 -0.4,0.1 -0.5,0.3 -0.3,1 -0.5,2.2 -0.5,3.5 0,1.7 0.3,3.4 0.9,4.6 0.2,0.4 0.4,0.8 0.6,1.1 -2.4,-0.7 -4.2,-3 -4.2,-5.7 0.1,-3.3 2.8,-5.9 6.1,-5.9"
         id="path4724"
         inkscape:connector-curvature="0"
         style="fill:#fff200" />
      <path
         d="m 181.9,131.2 -1,0 c -0.2,0 -0.4,0.2 -0.4,0.4 0,0.2 0.2,0.4 0.4,0.4 l 1,0 0,0.5 -1.7,0 0,-1.7 1.7,0 0,0.4 z"
         id="path4726"
         inkscape:connector-curvature="0"
         style="fill:#05ccb9" />
    </g>
  </g>
</svg>
