<?xml version="1.0" encoding="UTF-8" standalone="no"?>
<!-- Created with Inkscape (http://www.inkscape.org/) -->

<svg
   xmlns:dc="http://purl.org/dc/elements/1.1/"
   xmlns:cc="http://creativecommons.org/ns#"
   xmlns:rdf="http://www.w3.org/1999/02/22-rdf-syntax-ns#"
   xmlns:svg="http://www.w3.org/2000/svg"
   xmlns="http://www.w3.org/2000/svg"
   xmlns:sodipodi="http://sodipodi.sourceforge.net/DTD/sodipodi-0.dtd"
   xmlns:inkscape="http://www.inkscape.org/namespaces/inkscape"
   width="50"
   height="50"
   viewBox="0 0 49.999997 49.999997"
   id="svg5118"
   version="1.1"
   inkscape:version="0.91 r13725"
   sodipodi:docname="career-affair.svg">
  <defs
     id="defs5120" />
  <sodipodi:namedview
     id="base"
     pagecolor="#ffffff"
     bordercolor="#666666"
     borderopacity="1.0"
     inkscape:pageopacity="0.0"
     inkscape:pageshadow="2"
     inkscape:zoom="2"
     inkscape:cx="71.383879"
     inkscape:cy="46.122031"
     inkscape:document-units="px"
     inkscape:current-layer="layer1"
     showgrid="false"
     units="px"
     inkscape:window-width="1366"
     inkscape:window-height="705"
     inkscape:window-x="-8"
     inkscape:window-y="-8"
     inkscape:window-maximized="1" />
  <metadata
     id="metadata5123">
    <rdf:RDF>
      <cc:Work
         rdf:about="">
        <dc:format>image/svg+xml</dc:format>
        <dc:type
           rdf:resource="http://purl.org/dc/dcmitype/StillImage" />
        <dc:title></dc:title>
      </cc:Work>
    </rdf:RDF>
  </metadata>
  <g
     inkscape:label="Layer 1"
     inkscape:groupmode="layer"
     id="layer1"
     transform="translate(0,-1002.3622)">
    <g
       transform="matrix(2.0046188,0,0,2.0046188,-338.03647,860.72526)"
       id="icon-career-affair"
       inkscape:label="#g4892">
      <g
         id="g4894">
        <path
           d="m 181.5,88.4 c 3.5,-0.2 6.3,-2.9 6.3,-6.3 0,-3.5 -3,-6.3 -6.7,-6.3 -3.7,0 -6.7,2.8 -6.7,6.3 0,1.4 0.5,2.7 1.3,3.8 0,0 0,0 0,0.1 l 3.7,6.1 0,2.2 c 0,0.2 0.2,0.3 0.4,0.3 l 2.4,0 c 0.2,0 0.4,-0.2 0.4,-0.3 l 0,-2.2 2.1,-3.4 c 0.1,-0.2 0,-0.4 -0.1,-0.5 -0.2,-0.1 -0.4,0 -0.5,0.1 l -2.1,3.3 -0.6,0 0,-3.2 z m -1.4,3.2 -2.5,-4.2 c 0.9,0.6 2,0.9 3.2,1 l 0,3.2 -0.7,0 z m 6.9,-9.5 c 0,2.5 -1.8,4.7 -4.2,5.4 0.2,-0.3 0.4,-0.6 0.6,-1 0.6,-1.2 0.9,-2.7 0.9,-4.4 0,-1.6 -0.3,-3.2 -0.9,-4.4 -0.2,-0.4 -0.4,-0.7 -0.6,-1 2.4,0.7 4.2,2.9 4.2,5.4 l 0,0 z m -5.9,-5.6 c 0.6,0 1.2,0.6 1.7,1.5 0.5,1.1 0.8,2.5 0.8,4.1 0,1.5 -0.3,3 -0.8,4.1 -0.5,1 -1.1,1.5 -1.7,1.5 -0.6,0 -1.2,-0.6 -1.7,-1.5 -0.5,-1.1 -0.8,-2.5 -0.8,-4.1 0,-1.1 0.1,-2.2 0.4,-3.1 0.1,-0.2 -0.1,-0.4 -0.3,-0.4 -0.2,-0.1 -0.4,0.1 -0.5,0.2 -0.3,1 -0.5,2.1 -0.5,3.3 0,1.6 0.3,3.2 0.9,4.4 0.2,0.4 0.4,0.7 0.6,1 -2.4,-0.7 -4.2,-2.8 -4.2,-5.4 0.1,-3.1 2.8,-5.6 6.1,-5.6 l 0,0 z m 0.8,16.3 -1,0 c -0.2,0 -0.4,0.2 -0.4,0.3 0,0.2 0.2,0.3 0.4,0.3 l 1,0 0,0.6 -1.7,0 0,-1.6 1.7,0 0,0.4 z m 0,0"
           id="path4896"
           inkscape:connector-curvature="0"
           style="fill:#bcbec0" />
      </g>
    </g>
  </g>
</svg>
