<?xml version="1.0" encoding="UTF-8" standalone="no"?>
<!-- Created with Inkscape (http://www.inkscape.org/) -->

<svg
   xmlns:dc="http://purl.org/dc/elements/1.1/"
   xmlns:cc="http://creativecommons.org/ns#"
   xmlns:rdf="http://www.w3.org/1999/02/22-rdf-syntax-ns#"
   xmlns:svg="http://www.w3.org/2000/svg"
   xmlns="http://www.w3.org/2000/svg"
   xmlns:sodipodi="http://sodipodi.sourceforge.net/DTD/sodipodi-0.dtd"
   xmlns:inkscape="http://www.inkscape.org/namespaces/inkscape"
   width="50"
   height="50"
   viewBox="0 0 49.999997 49.999997"
   id="svg5118"
   version="1.1"
   inkscape:version="0.91 r13725"
   sodipodi:docname="clients.svg">
  <defs
     id="defs5120" />
  <sodipodi:namedview
     id="base"
     pagecolor="#ffffff"
     bordercolor="#666666"
     borderopacity="1.0"
     inkscape:pageopacity="0.0"
     inkscape:pageshadow="2"
     inkscape:zoom="2"
     inkscape:cx="71.383879"
     inkscape:cy="46.122031"
     inkscape:document-units="px"
     inkscape:current-layer="layer1"
     showgrid="false"
     units="px"
     inkscape:window-width="1366"
     inkscape:window-height="705"
     inkscape:window-x="-8"
     inkscape:window-y="-8"
     inkscape:window-maximized="1" />
  <metadata
     id="metadata5123">
    <rdf:RDF>
      <cc:Work
         rdf:about="">
        <dc:format>image/svg+xml</dc:format>
        <dc:type
           rdf:resource="http://purl.org/dc/dcmitype/StillImage" />
        <dc:title></dc:title>
      </cc:Work>
    </rdf:RDF>
  </metadata>
  <g
     inkscape:label="Layer 1"
     inkscape:groupmode="layer"
     id="layer1"
     transform="translate(0,-1002.3622)">
    <g
       transform="matrix(2.0046188,0,0,2.0046188,-44.560275,854.51094)"
       id="icon-clients"
       inkscape:label="#g4996">
      <g
         id="g5012">
        <g
           id="g5014">
          <g
             id="g5016">
            <path
               d="m 30.1,96.6 -1.3,-7 0,0 L 45.6,78 30.1,96.6 Z M 29,89.7 30.2,96.2 44.7,78.8 29,89.7 Z"
               id="path5018"
               inkscape:connector-curvature="0"
               style="fill:#bcbec0" />
            <path
               d="M 30,96.9 28.7,89.6 28.8,89.5 46.3,77.4 30,96.9 Z M 29.1,89.8 30.2,96 44,79.5 29.1,89.8 Z"
               id="path5020"
               inkscape:connector-curvature="0"
               style="fill:#bcbec0" />
          </g>
        </g>
        <g
           id="g5022">
          <g
             id="g5024">
            <path
               d="M 38.7,97.5 32,91.4 32.1,91.3 45.4,78.1 38.7,97.5 Z m -6.5,-6.1 6.4,5.8 6.3,-18.4 -12.7,12.6 z"
               id="path5026"
               inkscape:connector-curvature="0"
               style="fill:#bcbec0" />
            <path
               d="m 38.7,97.7 -7,-6.3 0.2,-0.2 13.7,-13.6 -0.2,0.5 -6.7,19.6 z M 32.3,91.4 38.5,97 44.6,79.2 32.3,91.4 Z"
               id="path5028"
               inkscape:connector-curvature="0"
               style="fill:#bcbec0" />
          </g>
        </g>
        <g
           id="g5030">
          <g
             id="g5032">
            <path
               d="M 28.9,89.8 23.4,88.8 45,78.4 45.1,78.5 28.9,89.8 Z M 24,88.7 28.9,89.6 44.2,79 24,88.7 Z"
               id="path5034"
               inkscape:connector-curvature="0"
               style="fill:#bcbec0" />
            <path
               d="m 29,89.9 0,0 -5.9,-1.1 22.1,-10.6 0.2,0.3 -0.1,0.1 L 29,89.9 Z m -4.6,-1.3 4.5,0.9 14,-9.7 -18.5,8.8 z"
               id="path5036"
               inkscape:connector-curvature="0"
               style="fill:#bcbec0" />
          </g>
        </g>
        <g
           id="g5038">
          <g
             id="g5040">
            <path
               d="m 30,96.7 2,-5.4 2.4,2.1 -4.4,3.3 z m 2.1,-5.2 -1.7,4.6 3.8,-2.8 -2.1,-1.8 z"
               id="path5042"
               inkscape:connector-curvature="0"
               style="fill:#bcbec0" />
            <path
               d="m 29.7,97 2.3,-6 2.6,2.4 -4.9,3.6 z m 2.4,-5.2 -1.5,4.1 3.3,-2.5 -1.8,-1.6 z"
               id="path5044"
               inkscape:connector-curvature="0"
               style="fill:#bcbec0" />
          </g>
        </g>
      </g>
    </g>
  </g>
</svg>
