<?xml version="1.0" encoding="UTF-8" standalone="no"?>
<!-- Created with Inkscape (http://www.inkscape.org/) -->

<svg
   xmlns:dc="http://purl.org/dc/elements/1.1/"
   xmlns:cc="http://creativecommons.org/ns#"
   xmlns:rdf="http://www.w3.org/1999/02/22-rdf-syntax-ns#"
   xmlns:svg="http://www.w3.org/2000/svg"
   xmlns="http://www.w3.org/2000/svg"
   xmlns:sodipodi="http://sodipodi.sourceforge.net/DTD/sodipodi-0.dtd"
   xmlns:inkscape="http://www.inkscape.org/namespaces/inkscape"
   width="50"
   height="50"
   viewBox="0 0 49.999997 49.999997"
   id="svg5118"
   version="1.1"
   inkscape:version="0.91 r13725"
   sodipodi:docname="get-in-touch.svg">
  <defs
     id="defs5120" />
  <sodipodi:namedview
     id="base"
     pagecolor="#ffffff"
     bordercolor="#666666"
     borderopacity="1.0"
     inkscape:pageopacity="0.0"
     inkscape:pageshadow="2"
     inkscape:zoom="2"
     inkscape:cx="71.383879"
     inkscape:cy="46.122031"
     inkscape:document-units="px"
     inkscape:current-layer="layer1"
     showgrid="false"
     units="px"
     inkscape:window-width="1366"
     inkscape:window-height="705"
     inkscape:window-x="-8"
     inkscape:window-y="-8"
     inkscape:window-maximized="1" />
  <metadata
     id="metadata5123">
    <rdf:RDF>
      <cc:Work
         rdf:about="">
        <dc:format>image/svg+xml</dc:format>
        <dc:type
           rdf:resource="http://purl.org/dc/dcmitype/StillImage" />
        <dc:title></dc:title>
      </cc:Work>
    </rdf:RDF>
  </metadata>
  <g
     inkscape:label="Layer 1"
     inkscape:groupmode="layer"
     id="layer1"
     transform="translate(0,-1002.3622)">
    <g
       transform="matrix(2.0046188,0,0,2.0046188,-191.22333,720.6024)"
       id="icon-get-in-touch"
       inkscape:label="#g4922">
      <g
         id="g4924">
        <path
           d="m 115.9,150.4 -1.1,-0.6 c 0,0 -1.7,-1.1 -6.6,-1.1 l -0.8,0 c -3.8,0 -6.4,1.1 -6.4,1.1 l -1.2,0.6 c -1.5,0.8 -0.7,2.1 -0.7,2.1 0,0 0.2,0.3 0.4,0.7 0.2,0.4 0.7,0.5 1.2,0.3 l 2.6,-1.3 c 0.5,-0.2 0.7,-0.6 0.6,-0.9 -0.1,-0.3 -0.3,-0.6 -0.3,-0.6 0,-0.1 0.5,-0.3 1,-0.5 0.8,-0.2 1.9,-0.6 3,-0.6 l 0.9,0 c 0,0 2.7,0.1 3.9,1 0,0 0,0.1 0,0.1 0,0 0,0 0,0.1 0,0 0,0 0,0.1 -0.1,0.2 -0.2,0.3 -0.2,0.5 -0.1,0.3 0.1,0.7 0.6,0.9 l 2.4,1.3 c 0.5,0.2 1,0.1 1.2,-0.3 l 0.4,-0.7 c -0.2,0 0.6,-1.4 -0.9,-2.2"
           id="path4926"
           inkscape:connector-curvature="0"
           style="fill:#bcbec0" />
        <path
           d="m 107.8,157.2 c -1.1,0 -2,0.9 -2,2 0,1.1 0.9,2 2,2 1.1,0 2,-0.9 2,-2 0.1,-1.1 -0.9,-2 -2,-2"
           id="path4928"
           inkscape:connector-curvature="0"
           style="fill:#bcbec0" />
        <path
           d="m 104.8,159 c 0,0 0.1,0 0.1,0 0.2,0 0.4,-0.2 0.5,-0.4 0.1,-0.3 -0.1,-0.6 -0.4,-0.6 0,0 -0.1,0 -0.1,0 -0.2,0 -0.4,0.2 -0.5,0.4 0,0.1 0,0.3 0.1,0.4 0,0 0.1,0.1 0.3,0.2"
           id="path4930"
           inkscape:connector-curvature="0"
           style="fill:#bcbec0" />
        <path
           d="m 105.3,160.3 c 0.1,-0.1 0.1,-0.3 0.1,-0.4 -0.1,-0.2 -0.3,-0.4 -0.5,-0.4 0,0 -0.1,0 -0.1,0 -0.3,0.1 -0.4,0.4 -0.4,0.6 0.1,0.2 0.3,0.4 0.5,0.4 0,0 0.1,0 0.1,0 0.2,0 0.3,-0.1 0.3,-0.2"
           id="path4932"
           inkscape:connector-curvature="0"
           style="fill:#bcbec0" />
        <path
           d="m 107.2,161.7 c 0,0 -0.1,0 -0.1,0 -0.2,0 -0.4,0.2 -0.5,0.4 0,0.1 0,0.3 0.1,0.4 0.1,0.1 0.2,0.2 0.3,0.2 0.3,0.1 0.6,-0.1 0.6,-0.4 0,-0.1 0,-0.3 -0.1,-0.4 -0.1,-0.1 -0.2,-0.2 -0.3,-0.2"
           id="path4934"
           inkscape:connector-curvature="0"
           style="fill:#bcbec0" />
        <path
           d="m 105.7,160.9 c -0.1,0 -0.3,0.1 -0.4,0.2 -0.2,0.2 -0.2,0.5 0,0.7 0.2,0.2 0.5,0.2 0.7,0 0.2,-0.2 0.2,-0.5 0,-0.7 0,-0.2 -0.2,-0.2 -0.3,-0.2"
           id="path4936"
           inkscape:connector-curvature="0"
           style="fill:#bcbec0" />
        <path
           d="m 108.5,156.8 c 0,0 0.1,0 0.1,0 0.2,0 0.4,-0.2 0.5,-0.4 0.1,-0.3 -0.1,-0.6 -0.4,-0.6 0,0 -0.1,0 -0.1,0 -0.2,0 -0.4,0.2 -0.5,0.4 -0.1,0.3 0.1,0.5 0.4,0.6"
           id="path4938"
           inkscape:connector-curvature="0"
           style="fill:#bcbec0" />
        <path
           d="m 110.3,158.2 c -0.1,0.1 -0.1,0.3 -0.1,0.4 0.1,0.2 0.3,0.4 0.5,0.4 0,0 0.1,0 0.1,0 0.1,0 0.2,-0.1 0.3,-0.2 0.1,-0.1 0.1,-0.3 0.1,-0.4 -0.1,-0.2 -0.3,-0.4 -0.5,-0.4 0,0 -0.1,0 -0.1,0 -0.1,0 -0.2,0.1 -0.3,0.2"
           id="path4940"
           inkscape:connector-curvature="0"
           style="fill:#bcbec0" />
        <path
           d="m 107,156.8 c 0,0 0.1,0 0.1,0 0.1,0 0.2,-0.1 0.3,-0.2 0.1,-0.1 0.1,-0.3 0.1,-0.4 -0.1,-0.2 -0.3,-0.4 -0.5,-0.4 0,0 -0.1,0 -0.1,0 -0.3,0.1 -0.4,0.4 -0.4,0.6 0.1,0.3 0.3,0.4 0.5,0.4"
           id="path4942"
           inkscape:connector-curvature="0"
           style="fill:#bcbec0" />
        <path
           d="m 106.1,157.5 c 0.1,-0.1 0.2,-0.2 0.2,-0.4 0,-0.1 -0.1,-0.3 -0.2,-0.4 -0.1,-0.1 -0.2,-0.2 -0.4,-0.2 -0.1,0 -0.3,0.1 -0.4,0.2 -0.1,0.1 -0.2,0.2 -0.2,0.4 0,0.1 0.1,0.3 0.2,0.4 0.2,0.2 0.6,0.2 0.8,0"
           id="path4944"
           inkscape:connector-curvature="0"
           style="fill:#bcbec0" />
        <path
           d="m 110.9,159.5 c 0,0 -0.1,0 -0.1,0 -0.2,0 -0.4,0.2 -0.5,0.4 0,0.1 0,0.3 0.1,0.4 0.1,0.1 0.2,0.2 0.3,0.2 0,0 0.1,0 0.1,0 0.2,0 0.4,-0.2 0.5,-0.4 0,-0.2 -0.1,-0.5 -0.4,-0.6"
           id="path4946"
           inkscape:connector-curvature="0"
           style="fill:#bcbec0" />
        <path
           d="m 110.5,157.1 c 0,-0.1 -0.1,-0.3 -0.2,-0.4 -0.1,-0.1 -0.2,-0.2 -0.4,-0.2 -0.1,0 -0.3,0.1 -0.4,0.2 -0.2,0.2 -0.2,0.5 0,0.7 0.1,0.1 0.2,0.2 0.4,0.2 0.1,0 0.3,-0.1 0.4,-0.2 0.1,0 0.2,-0.2 0.2,-0.3"
           id="path4948"
           inkscape:connector-curvature="0"
           style="fill:#bcbec0" />
        <path
           d="m 115.7,160.6 -2.6,-6.2 c -0.1,-0.3 -0.4,-0.5 -0.7,-0.5 l -1,0 0,-1.4 c 0,-0.4 -0.4,-0.8 -0.8,-0.8 l -0.3,0 c -0.4,0 -0.8,0.4 -0.8,0.8 l 0,1.4 -3.4,0 0,-1.4 c 0,-0.4 -0.4,-0.8 -0.8,-0.8 l -0.3,0 c -0.4,0 -0.8,0.4 -0.8,0.8 l 0,1.4 -1.1,0 c -0.3,0 -0.6,0.3 -0.7,0.5 l -2.6,6.2 c -0.1,0.3 -0.1,0.7 0,0.9 l 1.3,2.5 c 0.1,0.2 0.4,0.5 0.7,0.5 l 11.9,0 c 0.3,0 0.6,-0.2 0.7,-0.5 l 1.2,-2.5 c 0.2,-0.2 0.2,-0.6 0.1,-0.9 l 0,0 z m -7.9,2.7 c -2.2,0 -4.1,-1.8 -4.1,-4.1 0,-2.2 1.8,-4.1 4.1,-4.1 2.2,0 4.1,1.8 4.1,4.1 0,2.3 -1.8,4.1 -4.1,4.1 l 0,0 z m 0,0"
           id="path4950"
           inkscape:connector-curvature="0"
           style="fill:#bcbec0" />
      </g>
    </g>
  </g>
</svg>
