<?xml version="1.0" encoding="UTF-8" standalone="no"?>
<!-- Created with Inkscape (http://www.inkscape.org/) -->

<svg
   xmlns:dc="http://purl.org/dc/elements/1.1/"
   xmlns:cc="http://creativecommons.org/ns#"
   xmlns:rdf="http://www.w3.org/1999/02/22-rdf-syntax-ns#"
   xmlns:svg="http://www.w3.org/2000/svg"
   xmlns="http://www.w3.org/2000/svg"
   xmlns:sodipodi="http://sodipodi.sourceforge.net/DTD/sodipodi-0.dtd"
   xmlns:inkscape="http://www.inkscape.org/namespaces/inkscape"
   width="50"
   height="50"
   viewBox="0 0 49.999997 49.999997"
   id="svg5118"
   version="1.1"
   inkscape:version="0.91 r13725"
   sodipodi:docname="get-in-touch-hover.svg">
  <defs
     id="defs5120" />
  <sodipodi:namedview
     id="base"
     pagecolor="#ffffff"
     bordercolor="#666666"
     borderopacity="1.0"
     inkscape:pageopacity="0.0"
     inkscape:pageshadow="2"
     inkscape:zoom="2"
     inkscape:cx="-3.366121"
     inkscape:cy="46.122031"
     inkscape:document-units="px"
     inkscape:current-layer="layer1"
     showgrid="false"
     units="px"
     inkscape:window-width="1366"
     inkscape:window-height="705"
     inkscape:window-x="-8"
     inkscape:window-y="-8"
     inkscape:window-maximized="1" />
  <metadata
     id="metadata5123">
    <rdf:RDF>
      <cc:Work
         rdf:about="">
        <dc:format>image/svg+xml</dc:format>
        <dc:type
           rdf:resource="http://purl.org/dc/dcmitype/StillImage" />
        <dc:title></dc:title>
      </cc:Work>
    </rdf:RDF>
  </metadata>
  <g
     inkscape:label="Layer 1"
     inkscape:groupmode="layer"
     id="layer1"
     transform="translate(0,-1002.3622)">
    <g
       transform="matrix(2.0046188,0,0,2.0046188,-186.20541,639.6158)"
       id="icon-get-in-touch-hover"
       inkscape:label="#g4654">
      <path
         d="m 106.2,197.5 c -1.1,0 -2,0.9 -2,2 0,1.1 0.9,2 2,2 1.1,0 2,-0.9 2,-2 0,-1.1 -0.9,-2 -2,-2"
         id="path4656"
         inkscape:connector-curvature="0"
         style="fill:#bcbec0" />
      <path
         d="m 103.1,199.2 c 0,0 0.1,0 0.1,0 0.2,0 0.4,-0.2 0.5,-0.4 0.1,-0.3 -0.1,-0.6 -0.4,-0.6 0,0 -0.1,0 -0.1,0 -0.2,0 -0.4,0.2 -0.5,0.4 0,0.1 0,0.3 0.1,0.4 0.1,0.1 0.2,0.2 0.3,0.2"
         id="path4658"
         inkscape:connector-curvature="0"
         style="fill:#bcbec0" />
      <path
         d="m 103.7,200.5 c 0.1,-0.1 0.1,-0.3 0.1,-0.4 -0.1,-0.2 -0.3,-0.4 -0.5,-0.4 0,0 -0.1,0 -0.1,0 -0.3,0.1 -0.4,0.4 -0.4,0.6 0.1,0.2 0.3,0.4 0.5,0.4 0,0 0.1,0 0.1,0 0.1,0 0.3,0 0.3,-0.2"
         id="path4660"
         inkscape:connector-curvature="0"
         style="fill:#bcbec0" />
      <path
         d="m 105.6,201.9 c 0,0 -0.1,0 -0.1,0 -0.2,0 -0.4,0.2 -0.5,0.4 0,0.1 0,0.3 0.1,0.4 0.1,0.1 0.2,0.2 0.3,0.2 0.3,0.1 0.6,-0.1 0.6,-0.4 0,-0.1 0,-0.3 -0.1,-0.4 -0.1,-0.1 -0.2,-0.1 -0.3,-0.2"
         id="path4662"
         inkscape:connector-curvature="0"
         style="fill:#bcbec0" />
      <path
         d="m 104.1,201.1 c -0.1,0 -0.3,0.1 -0.4,0.2 -0.2,0.2 -0.2,0.5 0,0.7 0.2,0.2 0.5,0.2 0.7,0 0.2,-0.2 0.2,-0.5 0,-0.7 -0.1,-0.1 -0.2,-0.2 -0.3,-0.2"
         id="path4664"
         inkscape:connector-curvature="0"
         style="fill:#bcbec0" />
      <path
         d="m 106.9,197.1 c 0,0 0.1,0 0.1,0 0.2,0 0.4,-0.2 0.5,-0.4 0.1,-0.3 -0.1,-0.6 -0.4,-0.6 0,0 -0.1,0 -0.1,0 -0.2,0 -0.4,0.2 -0.5,0.4 -0.1,0.2 0.1,0.5 0.4,0.6"
         id="path4666"
         inkscape:connector-curvature="0"
         style="fill:#bcbec0" />
      <path
         d="m 108.7,198.4 c -0.1,0.1 -0.1,0.3 -0.1,0.4 0.1,0.2 0.3,0.4 0.5,0.4 0,0 0.1,0 0.1,0 0.1,0 0.2,-0.1 0.3,-0.2 0.1,-0.1 0.1,-0.3 0.1,-0.4 -0.1,-0.2 -0.3,-0.4 -0.5,-0.4 0,0 -0.1,0 -0.1,0 -0.1,0 -0.3,0.1 -0.3,0.2"
         id="path4668"
         inkscape:connector-curvature="0"
         style="fill:#bcbec0" />
      <path
         d="m 105.4,197.1 c 0,0 0.1,0 0.1,0 0.1,0 0.2,-0.1 0.3,-0.2 0.1,-0.1 0.1,-0.3 0.1,-0.4 -0.1,-0.2 -0.3,-0.4 -0.5,-0.4 0,0 -0.1,0 -0.1,0 -0.3,0.1 -0.4,0.4 -0.4,0.6 0.1,0.2 0.3,0.4 0.5,0.4"
         id="path4670"
         inkscape:connector-curvature="0"
         style="fill:#bcbec0" />
      <path
         d="m 104.4,197.7 c 0.1,-0.1 0.2,-0.2 0.2,-0.4 0,-0.1 -0.1,-0.3 -0.2,-0.4 -0.1,-0.1 -0.2,-0.2 -0.4,-0.2 -0.1,0 -0.3,0.1 -0.4,0.2 -0.1,0.1 -0.2,0.2 -0.2,0.4 0,0.1 0.1,0.3 0.2,0.4 0.3,0.2 0.6,0.2 0.8,0"
         id="path4672"
         inkscape:connector-curvature="0"
         style="fill:#bcbec0" />
      <path
         d="m 109.3,199.8 c 0,0 -0.1,0 -0.1,0 -0.2,0 -0.4,0.2 -0.5,0.4 0,0.1 0,0.3 0.1,0.4 0.1,0.1 0.2,0.2 0.3,0.2 0,0 0.1,0 0.1,0 0.2,0 0.4,-0.2 0.5,-0.4 0,-0.3 -0.2,-0.6 -0.4,-0.6"
         id="path4674"
         inkscape:connector-curvature="0"
         style="fill:#bcbec0" />
      <path
         d="m 108.9,197.3 c 0,-0.1 -0.1,-0.3 -0.2,-0.4 -0.1,-0.1 -0.2,-0.2 -0.4,-0.2 -0.1,0 -0.3,0.1 -0.4,0.2 -0.2,0.2 -0.2,0.5 0,0.7 0.1,0.1 0.2,0.2 0.4,0.2 0.1,0 0.3,-0.1 0.4,-0.2 0.1,0 0.2,-0.1 0.2,-0.3"
         id="path4676"
         inkscape:connector-curvature="0"
         style="fill:#bcbec0" />
      <path
         d="m 114,200.9 -2.6,-6.2 c -0.1,-0.3 -0.4,-0.5 -0.7,-0.5 l -1,0 0,-1.4 c 0,-0.4 -0.4,-0.8 -0.8,-0.8 l -0.3,0 c -0.4,0 -0.8,0.4 -0.8,0.8 l 0,1.4 -3.4,0 0,-1.4 c 0,-0.4 -0.4,-0.8 -0.8,-0.8 l -0.3,0 c -0.4,0 -0.8,0.4 -0.8,0.8 l 0,1.4 -1.1,0 c -0.3,0 -0.6,0.3 -0.7,0.5 l -2.6,6.2 c -0.1,0.3 -0.1,0.7 0,0.9 l 1.3,2.5 c 0.1,0.2 0.4,0.5 0.7,0.5 l 11.9,0 c 0.3,0 0.6,-0.2 0.7,-0.5 l 1.2,-2.5 c 0.2,-0.2 0.2,-0.7 0.1,-0.9 m -7.8,2.7 c -2.2,0 -4.1,-1.8 -4.1,-4.1 0,-2.2 1.8,-4.1 4.1,-4.1 2.2,0 4.1,1.8 4.1,4.1 0,2.2 -1.9,4.1 -4.1,4.1"
         id="path4678"
         inkscape:connector-curvature="0"
         style="fill:#bcbec0" />
      <path
         d="m 110.4,190.2 c 0,0.1 0.2,0.2 0.3,0.2 0.1,0 0.2,-0.2 0.2,-0.3 l -0.1,-0.8 c 0,-0.1 -0.1,-0.1 -0.1,-0.2 -0.1,0 -0.1,-0.1 -0.2,-0.1 -0.1,0 -0.2,0.2 -0.2,0.3 l 0.1,0.9 z"
         id="path4680"
         inkscape:connector-curvature="0"
         style="fill:#05ccb9" />
      <path
         d="m 111.3,188.6 c -0.1,0.1 -0.1,0.3 0.1,0.4 l 0.7,0.5 c 0.1,0.1 0.3,0.1 0.4,-0.1 0.1,-0.1 0.1,-0.3 -0.1,-0.4 l -0.7,-0.5 c -0.1,-0.1 -0.3,0 -0.4,0.1"
         id="path4682"
         inkscape:connector-curvature="0"
         style="fill:#05ccb9" />
      <path
         d="m 111.9,188 0.8,-0.1 c 0.1,0 0.2,-0.2 0.2,-0.3 0,-0.1 -0.1,-0.1 -0.1,-0.2 -0.1,0 -0.1,-0.1 -0.2,0 l -0.8,0.1 c -0.1,0 -0.2,0.2 -0.2,0.3 0,0.1 0.1,0.2 0.3,0.2"
         id="path4684"
         inkscape:connector-curvature="0"
         style="fill:#05ccb9" />
      <path
         d="m 109.5,188.9 c -0.1,-0.1 -0.3,-0.1 -0.4,0.1 l -0.5,0.7 c -0.1,0.1 -0.1,0.3 0.1,0.4 0.1,0.1 0.3,0.1 0.4,-0.1 l 0.5,-0.7 c 0.1,-0.2 0,-0.4 -0.1,-0.4"
         id="path4686"
         inkscape:connector-curvature="0"
         style="fill:#05ccb9" />
      <path
         d="m 108.9,188 c -0.1,0 -0.1,-0.1 -0.2,0 l -0.8,0.1 c -0.1,0 -0.2,0.2 -0.2,0.3 0,0.1 0.2,0.3 0.3,0.2 l 0.8,-0.1 c 0.1,0 0.2,-0.2 0.2,-0.3 0,-0.1 0,-0.2 -0.1,-0.2"
         id="path4688"
         inkscape:connector-curvature="0"
         style="fill:#05ccb9" />
      <path
         d="m 110.4,182.7 -1.3,0.1 c 0,0 -2,0.1 -6.1,2.8 l -0.6,0.4 c -3.2,2.1 -4.8,4.5 -4.8,4.5 l -0.7,1.2 c -0.8,1.5 0.6,2.2 0.6,2.2 0,0 0.3,0.2 0.7,0.4 0.4,0.2 0.9,0 1.2,-0.4 l 1.4,-2.5 c 0.3,-0.5 0.2,-0.9 0,-1.1 -0.3,-0.1 -0.6,-0.3 -0.6,-0.4 -0.1,-0.1 0.3,-0.5 0.6,-1 0.5,-0.6 1.2,-1.5 2.1,-2.1 l 0.7,-0.5 c 0,0 2.3,-1.5 3.8,-1.3 0,0 0.1,0 0.1,0 0,0 0.1,0 0.1,0.1 0,0 0,0 0,0.1 0,0.2 0.1,0.4 0.1,0.5 0,0.3 0.5,0.5 1,0.4 l 2.7,-0.3 c 0.5,-0.1 0.9,-0.5 0.9,-0.9 l -0.1,-0.8 c 0,0 -0.1,-1.6 -1.8,-1.4"
         id="path4690"
         inkscape:connector-curvature="0"
         style="fill:#040606" />
      <path
         d="m 106.1,197.6 c -1.1,0 -2,0.9 -2,2 0,1.1 0.9,2 2,2 1.1,0 2,-0.9 2,-2 0,-1.1 -0.9,-2 -2,-2"
         id="path4692"
         inkscape:connector-curvature="0"
         style="fill:#fff200" />
      <path
         d="m 103,199.3 c 0,0 0.1,0 0.1,0 0.2,0 0.4,-0.2 0.5,-0.4 0.1,-0.3 -0.1,-0.6 -0.4,-0.6 0,0 -0.1,0 -0.1,0 -0.2,0 -0.4,0.2 -0.5,0.4 0,0.1 0,0.3 0.1,0.4 0.1,0.1 0.2,0.2 0.3,0.2"
         id="path4694"
         inkscape:connector-curvature="0"
         style="fill:#05ccb9" />
      <path
         d="m 103.6,200.6 c 0.1,-0.1 0.1,-0.3 0.1,-0.4 -0.1,-0.2 -0.3,-0.4 -0.5,-0.4 0,0 -0.1,0 -0.1,0 -0.3,0.1 -0.4,0.4 -0.4,0.6 0.1,0.2 0.3,0.4 0.5,0.4 0,0 0.1,0 0.1,0 0.1,0 0.2,-0.1 0.3,-0.2"
         id="path4696"
         inkscape:connector-curvature="0"
         style="fill:#05ccb9" />
      <path
         d="m 105.4,202 c 0,0 -0.1,0 -0.1,0 -0.2,0 -0.4,0.2 -0.5,0.4 0,0.1 0,0.3 0.1,0.4 0.1,0.1 0.2,0.2 0.3,0.2 0.3,0.1 0.6,-0.1 0.6,-0.4 0,-0.1 0,-0.3 -0.1,-0.4 0,-0.1 -0.1,-0.2 -0.3,-0.2"
         id="path4698"
         inkscape:connector-curvature="0"
         style="fill:#05ccb9" />
      <path
         d="m 103.9,201.2 c -0.1,0 -0.3,0.1 -0.4,0.2 -0.2,0.2 -0.2,0.5 0,0.7 0.2,0.2 0.5,0.2 0.7,0 0.2,-0.2 0.2,-0.5 0,-0.7 0,-0.1 -0.1,-0.2 -0.3,-0.2"
         id="path4700"
         inkscape:connector-curvature="0"
         style="fill:#05ccb9" />
      <path
         d="m 106.7,197.2 c 0,0 0.1,0 0.1,0 0.2,0 0.4,-0.2 0.5,-0.4 0.1,-0.3 -0.1,-0.6 -0.4,-0.6 0,0 -0.1,0 -0.1,0 -0.2,0 -0.4,0.2 -0.5,0.4 0,0.2 0.2,0.5 0.4,0.6"
         id="path4702"
         inkscape:connector-curvature="0"
         style="fill:#05ccb9" />
      <path
         d="m 108.6,198.5 c -0.1,0.1 -0.1,0.3 -0.1,0.4 0.1,0.2 0.3,0.4 0.5,0.4 0,0 0.1,0 0.1,0 0.1,0 0.2,-0.1 0.3,-0.2 0.1,-0.1 0.1,-0.3 0.1,-0.4 -0.1,-0.2 -0.3,-0.4 -0.5,-0.4 0,0 -0.1,0 -0.1,0 -0.2,0 -0.3,0.1 -0.3,0.2"
         id="path4704"
         inkscape:connector-curvature="0"
         style="fill:#05ccb9" />
      <path
         d="m 105.3,197.2 c 0,0 0.1,0 0.1,0 0.1,0 0.2,-0.1 0.3,-0.2 0.1,-0.1 0.1,-0.3 0.1,-0.4 -0.1,-0.2 -0.3,-0.4 -0.5,-0.4 0,0 -0.1,0 -0.1,0 -0.3,0.1 -0.4,0.4 -0.4,0.6 0.1,0.2 0.3,0.4 0.5,0.4"
         id="path4706"
         inkscape:connector-curvature="0"
         style="fill:#05ccb9" />
      <path
         d="m 104.3,197.8 c 0.1,-0.1 0.2,-0.2 0.2,-0.4 0,-0.1 -0.1,-0.3 -0.2,-0.4 -0.1,-0.1 -0.2,-0.2 -0.4,-0.2 -0.1,0 -0.3,0.1 -0.4,0.2 -0.1,0.1 -0.2,0.2 -0.2,0.4 0,0.1 0.1,0.3 0.2,0.4 0.3,0.2 0.6,0.2 0.8,0"
         id="path4708"
         inkscape:connector-curvature="0"
         style="fill:#05ccb9" />
      <path
         d="m 109.1,199.9 c 0,0 -0.1,0 -0.1,0 -0.2,0 -0.4,0.2 -0.5,0.4 0,0.1 0,0.3 0.1,0.4 0.1,0.1 0.2,0.2 0.3,0.2 0,0 0.1,0 0.1,0 0.2,0 0.4,-0.2 0.5,-0.4 0.1,-0.3 -0.1,-0.6 -0.4,-0.6"
         id="path4710"
         inkscape:connector-curvature="0"
         style="fill:#05ccb9" />
      <path
         d="m 108.7,197.4 c 0,-0.1 -0.1,-0.3 -0.2,-0.4 -0.1,-0.1 -0.2,-0.2 -0.4,-0.2 -0.1,0 -0.3,0.1 -0.4,0.2 -0.2,0.2 -0.2,0.5 0,0.7 0.1,0.1 0.2,0.2 0.4,0.2 0.1,0 0.3,-0.1 0.4,-0.2 0.2,0 0.2,-0.1 0.2,-0.3"
         id="path4712"
         inkscape:connector-curvature="0"
         style="fill:#05ccb9" />
      <path
         d="m 113.9,201 -2.6,-6.2 c -0.1,-0.3 -0.4,-0.5 -0.7,-0.5 l -1,0 0,-1.4 c 0,-0.4 -0.4,-0.8 -0.8,-0.8 l -0.3,0 c -0.4,0 -0.8,0.4 -0.8,0.8 l 0,1.4 -3.4,0 0,-1.4 c 0,-0.4 -0.4,-0.8 -0.8,-0.8 l -0.3,0 c -0.4,0 -0.8,0.4 -0.8,0.8 l 0,1.4 -1.1,0 c -0.3,0 -0.6,0.3 -0.7,0.5 L 98,201 c -0.1,0.3 -0.1,0.7 0,0.9 l 1.3,2.5 c 0.1,0.2 0.4,0.5 0.7,0.5 l 12,0 c 0.3,0 0.6,-0.2 0.7,-0.5 l 1.2,-2.5 c 0.1,-0.2 0.1,-0.7 0,-0.9 m -7.8,2.7 c -2.2,0 -4.1,-1.8 -4.1,-4.1 0,-2.2 1.8,-4.1 4.1,-4.1 2.2,0 4.1,1.8 4.1,4.1 0,2.2 -1.9,4.1 -4.1,4.1"
         id="path4714"
         inkscape:connector-curvature="0"
         style="fill:#040606" />
    </g>
  </g>
</svg>
