<?xml version="1.0" encoding="UTF-8" standalone="no"?>
<!-- Created with Inkscape (http://www.inkscape.org/) -->

<svg
   xmlns:dc="http://purl.org/dc/elements/1.1/"
   xmlns:cc="http://creativecommons.org/ns#"
   xmlns:rdf="http://www.w3.org/1999/02/22-rdf-syntax-ns#"
   xmlns:svg="http://www.w3.org/2000/svg"
   xmlns="http://www.w3.org/2000/svg"
   xmlns:sodipodi="http://sodipodi.sourceforge.net/DTD/sodipodi-0.dtd"
   xmlns:inkscape="http://www.inkscape.org/namespaces/inkscape"
   width="50"
   height="50"
   viewBox="0 0 49.999997 49.999997"
   id="svg5118"
   version="1.1"
   inkscape:version="0.91 r13725"
   sodipodi:docname="our-affair.svg">
  <defs
     id="defs5120" />
  <sodipodi:namedview
     id="base"
     pagecolor="#ffffff"
     bordercolor="#666666"
     borderopacity="1.0"
     inkscape:pageopacity="0.0"
     inkscape:pageshadow="2"
     inkscape:zoom="2"
     inkscape:cx="71.383879"
     inkscape:cy="46.122031"
     inkscape:document-units="px"
     inkscape:current-layer="layer1"
     showgrid="false"
     units="px"
     inkscape:window-width="1366"
     inkscape:window-height="705"
     inkscape:window-x="-8"
     inkscape:window-y="-8"
     inkscape:window-maximized="1" />
  <metadata
     id="metadata5123">
    <rdf:RDF>
      <cc:Work
         rdf:about="">
        <dc:format>image/svg+xml</dc:format>
        <dc:type
           rdf:resource="http://purl.org/dc/dcmitype/StillImage" />
        <dc:title></dc:title>
      </cc:Work>
    </rdf:RDF>
  </metadata>
  <g
     inkscape:label="Layer 1"
     inkscape:groupmode="layer"
     id="layer1"
     transform="translate(0,-1002.3622)">
    <g
       transform="matrix(2.0046188,0,0,2.0046188,-47.066049,1004.6569)"
       id="icon-our-affair"
       inkscape:label="#g4790">
      <g
         id="g4792">
        <path
           d="m 35.9,18.7 -0.2,-0.1 c -5.2,-2.9 -4.9,-5.8 -4.7,-6.7 0.3,-1.3 1.5,-2.3 2.7,-2.3 0.8,0 1.6,0.4 2.1,1.1 0.6,-0.7 1.3,-1.1 2.1,-1.1 1.3,0 2.4,0.9 2.7,2.3 0.2,0.8 0.5,3.8 -4.7,6.7 l 0,0.1 z m -2.2,-8.3 c -1,0 -1.8,0.7 -2.1,1.8 -0.2,0.7 -0.4,3.3 4.3,5.9 4.7,-2.6 4.4,-5.2 4.3,-5.9 -0.3,-1 -1.1,-1.8 -2.1,-1.8 -0.7,0 -1.4,0.4 -1.9,1.2 L 35.9,12 35.6,11.5 c -0.5,-0.7 -1.1,-1.1 -1.9,-1.1 z"
           id="path4794"
           inkscape:connector-curvature="0"
           style="fill:#bcbec0" />
        <path
           d="m 35.9,5.5 c -4.7,0 -8.6,3.9 -8.6,8.6 0,1.5 0.4,3 1.2,4.3 0.1,0.2 0.4,0.3 0.6,0.2 0.2,-0.1 0.3,-0.4 0.2,-0.6 -0.7,-1.2 -1,-2.5 -1,-3.9 0,-4.3 3.5,-7.7 7.7,-7.7 4.2,0 7.7,3.5 7.7,7.7 0,4.3 -3.5,7.7 -7.7,7.7 -1,0 -2,-0.2 -2.9,-0.6 -0.1,0 -0.2,0 -0.3,0 l -2.2,0.6 0.4,-1.5 c 0.1,-0.2 -0.1,-0.5 -0.3,-0.5 -0.2,-0.1 -0.5,0.1 -0.5,0.3 l -0.6,2.2 c 0,0.1 0,0.3 0.1,0.4 0.1,0.1 0.2,0.1 0.3,0.1 0,0 0.1,0 0.1,0 l 2.8,-0.7 c 1,0.4 2,0.6 3.1,0.6 4.7,0 8.6,-3.9 8.6,-8.6 -0.1,-4.7 -4,-8.6 -8.7,-8.6 l 0,0 z m 0,0"
           id="path4796"
           inkscape:connector-curvature="0"
           style="fill:#bcbec0" />
      </g>
    </g>
  </g>
</svg>
