<?xml version="1.0" encoding="UTF-8" standalone="no"?>
<!-- Created with Inkscape (http://www.inkscape.org/) -->

<svg
   xmlns:dc="http://purl.org/dc/elements/1.1/"
   xmlns:cc="http://creativecommons.org/ns#"
   xmlns:rdf="http://www.w3.org/1999/02/22-rdf-syntax-ns#"
   xmlns:svg="http://www.w3.org/2000/svg"
   xmlns="http://www.w3.org/2000/svg"
   xmlns:sodipodi="http://sodipodi.sourceforge.net/DTD/sodipodi-0.dtd"
   xmlns:inkscape="http://www.inkscape.org/namespaces/inkscape"
   width="50"
   height="50"
   viewBox="0 0 49.999997 49.999997"
   id="svg5118"
   version="1.1"
   inkscape:version="0.91 r13725"
   sodipodi:docname="portfolio-hover.svg">
  <defs
     id="defs5120" />
  <sodipodi:namedview
     id="base"
     pagecolor="#ffffff"
     bordercolor="#666666"
     borderopacity="1.0"
     inkscape:pageopacity="0.0"
     inkscape:pageshadow="2"
     inkscape:zoom="2"
     inkscape:cx="-3.366121"
     inkscape:cy="46.122031"
     inkscape:document-units="px"
     inkscape:current-layer="layer1"
     showgrid="false"
     units="px"
     inkscape:window-width="1366"
     inkscape:window-height="705"
     inkscape:window-x="-8"
     inkscape:window-y="-8"
     inkscape:window-maximized="1" />
  <metadata
     id="metadata5123">
    <rdf:RDF>
      <cc:Work
         rdf:about="">
        <dc:format>image/svg+xml</dc:format>
        <dc:type
           rdf:resource="http://purl.org/dc/dcmitype/StillImage" />
        <dc:title></dc:title>
      </cc:Work>
    </rdf:RDF>
  </metadata>
  <g
     inkscape:label="Layer 1"
     inkscape:groupmode="layer"
     id="layer1"
     transform="translate(0,-1002.3622)">
    <g
       transform="matrix(2.0046188,0,0,2.0046188,-337.53531,932.41086)"
       id="icon-portfolio-hover"
       inkscape:label="#g4734">
      <path
         d="m 188.7,51.3 c 0,-0.3 -0.2,-0.6 -0.6,-0.6 l -1.1,0 c -0.3,0 -0.6,0.2 -0.6,0.6 0,0.3 0.2,0.6 0.6,0.6 l 1.2,0 c 0.3,0 0.5,-0.2 0.5,-0.6 l 0,0 z m 0,0"
         id="path4736"
         inkscape:connector-curvature="0" />
      <path
         d="m 188.7,54.8 c 0,-0.3 -0.2,-0.6 -0.6,-0.6 l -1.1,0 c -0.3,0 -0.6,0.2 -0.6,0.6 0,0.3 0.2,0.6 0.6,0.6 l 1.2,0 c 0.3,0 0.5,-0.2 0.5,-0.6 l 0,0 z m 0,0"
         id="path4738"
         inkscape:connector-curvature="0" />
      <path
         d="m 184.6,57.7 6.4,0 c 0.3,0 0.6,-0.2 0.6,-0.6 l 0,-8.1 c 0,-0.3 -0.2,-0.6 -0.6,-0.6 l -6.4,0 c 0,-0.9 -0.6,-1.2 -1.2,-1.2 l -8.1,0 c -2.9,0 -5.2,2.5 -5.2,5.8 0,3.2 2.3,5.8 5.2,5.8 l 8.1,0 c 0.7,0.1 1.2,0.1 1.2,-1.1 l 0,0 z m 5.8,-8.1 0,6.9 -5.8,0 0,-6.9 5.8,0 z m -8.1,6.9 0,-6.9 c 0,-0.3 0.2,-0.6 0.6,-0.6 0.4,0 0.6,0.2 0.6,0.6 l 0,6.9 c 0,0.3 -0.2,0.6 -0.6,0.6 -0.4,0 -0.6,-0.2 -0.6,-0.6 l 0,0 z m 0,0"
         id="path4740"
         inkscape:connector-curvature="0" />
      <path
         d="m 183.9,57.5 c 0,0.7 -0.2,0.7 -0.7,0.7 l -7.7,0 c -2.6,0 -4.6,-2.3 -4.6,-5.2 0,-2.9 2,-5.2 4.6,-5.2 l 7.7,0 c 0.5,0 0.7,0.2 0.7,0.7 l 0,9 z"
         id="path4742"
         inkscape:connector-curvature="0"
         style="fill:#05ccb9" />
      <path
         d="m 181.4,56.5 0,-6.9 c 0,-0.3 0.2,-0.6 0.6,-0.6 0.3,0 0.6,0.2 0.6,0.6 l 0,6.9 c 0,0.3 -0.2,0.6 -0.6,0.6 -0.4,0 -0.6,-0.2 -0.6,-0.6 l 0,0 z"
         id="path4744"
         inkscape:connector-curvature="0"
         style="fill:#fff200" />
    </g>
  </g>
</svg>
