<?xml version="1.0" encoding="UTF-8" standalone="no"?>
<!-- Created with Inkscape (http://www.inkscape.org/) -->

<svg
   xmlns:dc="http://purl.org/dc/elements/1.1/"
   xmlns:cc="http://creativecommons.org/ns#"
   xmlns:rdf="http://www.w3.org/1999/02/22-rdf-syntax-ns#"
   xmlns:svg="http://www.w3.org/2000/svg"
   xmlns="http://www.w3.org/2000/svg"
   xmlns:sodipodi="http://sodipodi.sourceforge.net/DTD/sodipodi-0.dtd"
   xmlns:inkscape="http://www.inkscape.org/namespaces/inkscape"
   width="50"
   height="50"
   viewBox="0 0 49.999997 49.999997"
   id="svg5118"
   version="1.1"
   inkscape:version="0.91 r13725"
   sodipodi:docname="services.svg">
  <defs
     id="defs5120" />
  <sodipodi:namedview
     id="base"
     pagecolor="#ffffff"
     bordercolor="#666666"
     borderopacity="1.0"
     inkscape:pageopacity="0.0"
     inkscape:pageshadow="2"
     inkscape:zoom="2"
     inkscape:cx="71.383879"
     inkscape:cy="46.122031"
     inkscape:document-units="px"
     inkscape:current-layer="layer1"
     showgrid="false"
     units="px"
     inkscape:window-width="1366"
     inkscape:window-height="705"
     inkscape:window-x="-8"
     inkscape:window-y="-8"
     inkscape:window-maximized="1" />
  <metadata
     id="metadata5123">
    <rdf:RDF>
      <cc:Work
         rdf:about="">
        <dc:format>image/svg+xml</dc:format>
        <dc:type
           rdf:resource="http://purl.org/dc/dcmitype/StillImage" />
        <dc:title></dc:title>
      </cc:Work>
    </rdf:RDF>
  </metadata>
  <g
     inkscape:label="Layer 1"
     inkscape:groupmode="layer"
     id="layer1"
     transform="translate(0,-1002.3622)">
    <g
       transform="matrix(2.0046188,0,0,2.0046188,-192.70489,1004.6569)"
       id="icon-services"
       inkscape:label="#g4816">
      <path
         d="m 109,7 -0.7,0 c -2.9,0.2 -5.1,2.6 -5.1,5.5 0,2 0.9,3.6 2.4,4.6 l 0,1.6 c 0,0.5 0.2,0.6 0.4,0.8 0.1,0 0.1,0.1 0.1,0.2 0,0.1 0,0.2 -0.1,0.2 -0.4,0 -0.4,0.5 -0.4,0.5 l 0,1 c 0,0.2 0.2,0.4 0.4,0.4 l 0.3,0 c 0.2,0 0.4,0.2 0.4,0.2 0,0 1,0.8 1.9,0.8 1,0 1.9,-0.8 1.9,-0.8 0,0 0.2,-0.2 0.4,-0.2 l 0.3,0 c 0.2,0 0.4,-0.2 0.4,-0.4 l 0,-1 c 0,0 0,-0.5 -0.4,-0.5 -0.1,0 -0.1,-0.1 -0.1,-0.2 0,-0.1 0,-0.2 0.1,-0.2 0.3,-0.2 0.4,-0.4 0.4,-0.8 l 0,-1.7 c 1.5,-1 2.4,-2.6 2.4,-4.6 0.1,-2.9 -2.1,-5.2 -5,-5.4 z m 1.9,9.3 -0.4,0.2 0,1.8 c 0,0.3 -0.2,0.6 -0.5,0.6 l -0.8,0.2 c -0.1,0 -0.8,0.1 -1.3,0 l -0.8,-0.2 c -0.3,-0.1 -0.5,-0.3 -0.5,-0.6 l 0,-1.8 -0.4,-0.2 c -1.9,-1 -2.2,-2.7 -2.2,-3.9 0,-2.5 2,-4.6 4.5,-4.6 2.5,0 4.5,2.1 4.5,4.6 0.2,1.3 -0.2,3 -2.1,3.9 z"
         id="path4818"
         inkscape:connector-curvature="0"
         style="fill:#bcbec0" />
    </g>
  </g>
</svg>
