<?xml version="1.0" encoding="UTF-8" standalone="no"?>
<!-- Created with Inkscape (http://www.inkscape.org/) -->

<svg
   xmlns:dc="http://purl.org/dc/elements/1.1/"
   xmlns:cc="http://creativecommons.org/ns#"
   xmlns:rdf="http://www.w3.org/1999/02/22-rdf-syntax-ns#"
   xmlns:svg="http://www.w3.org/2000/svg"
   xmlns="http://www.w3.org/2000/svg"
   xmlns:sodipodi="http://sodipodi.sourceforge.net/DTD/sodipodi-0.dtd"
   xmlns:inkscape="http://www.inkscape.org/namespaces/inkscape"
   width="74.362236mm"
   height="9.7860718mm"
   viewBox="0 0 74.362236 9.7860718"
   version="1.1"
   id="svg8"
   inkscape:version="0.92.4 (5da689c313, 2019-01-14)"
   sodipodi:docname="bandImage1.svg">
  <defs
     id="defs2" />
  <sodipodi:namedview
     id="base"
     pagecolor="#ffffff"
     bordercolor="#666666"
     borderopacity="1.0"
     inkscape:pageopacity="0.0"
     inkscape:pageshadow="2"
     inkscape:zoom="2.8"
     inkscape:cx="161.52589"
     inkscape:cy="-24.621835"
     inkscape:document-units="mm"
     inkscape:current-layer="g5161"
     showgrid="true"
     inkscape:window-width="1600"
     inkscape:window-height="963"
     inkscape:window-x="-9"
     inkscape:window-y="-9"
     inkscape:window-maximized="1">
    <inkscape:grid
       type="xygrid"
       id="grid28" />
  </sodipodi:namedview>
  <metadata
     id="metadata5">
    <rdf:RDF>
      <cc:Work
         rdf:about="">
        <dc:format>image/svg+xml</dc:format>
        <dc:type
           rdf:resource="http://purl.org/dc/dcmitype/StillImage" />
        <dc:title />
      </cc:Work>
    </rdf:RDF>
  </metadata>
  <g
     inkscape:label="Layer 1"
     inkscape:groupmode="layer"
     id="layer1"
     transform="translate(-1.9009686,-3.4707468)">
    <g
       transform="matrix(0.28222224,0,0,0.28222224,-75.170814,-112.55148)"
       id="layer1-5"
       inkscape:label="Layer 1">
      <g
         inkscape:export-ydpi="150.117"
         inkscape:export-xdpi="150.117"
         transform="translate(5.6389764,-4.4098475)"
         id="g5161">
        <g
           transform="translate(176.45,398.28184)"
           id="g5">
          <path
             style="fill:#414042"
             inkscape:connector-curvature="0"
             d="m 117.6,21.8 h 2 c 0.8,0 1.4,-0.6 1.4,-1.4 v -1.1 c 0,-0.8 -0.6,-1.4 -1.4,-1.4 H 92.4 c -0.8,0 -1.4,0.6 -1.4,1.4 v 1.1 c 0,0.8 0.6,1.4 1.4,1.4 h 2 c 0.1,5.2 2.2,10 5.5,12.8 -3.3,2.8 -5.4,7.7 -5.5,13.2 h -2 c -0.8,0 -1.4,0.6 -1.4,1.4 v 1 c 0,0.8 0.6,1.4 1.4,1.4 h 27.2 c 0.8,0 1.4,-0.6 1.4,-1.4 v -1 c 0,-0.8 -0.6,-1.4 -1.4,-1.4 h -2 c -0.1,-5.4 -2.2,-10.3 -5.5,-13.2 3.3,-2.8 5.4,-7.6 5.5,-12.8 z m -9.1,13.9 0.5,0.3 c 3.6,1.8 6,6.4 6.1,11.7 H 96.9 C 97,42.4 99.4,37.8 103,36 l 0.5,-0.3 c 0.5,-0.2 0.7,-0.7 0.7,-1.2 0,-0.5 -0.3,-1 -0.7,-1.2 L 103,33 C 99.5,31.3 97.1,26.8 96.9,21.7 H 115 c -0.2,5.1 -2.6,9.6 -6.1,11.3 l -0.5,0.3 c -0.5,0.2 -0.7,0.7 -0.7,1.2 0,0.6 0.3,1 0.8,1.2 z m 0,0"
             id="path7" />
          <path
             style="fill:#414042"
             inkscape:connector-curvature="0"
             d="m 100.2,46.4 h 12.3 c -0.4,-3 -3,-5.4 -6.1,-5.4 -3.2,0 -5.7,2.4 -6.2,5.4 z m 0,0"
             id="path9" />
          <path
             style="fill:#414042"
             inkscape:connector-curvature="0"
             d="m 110.6,30.3 h -9.2 c 1.1,1.3 2.8,2.1 4.6,2.1 1.8,0 3.4,-0.9 4.6,-2.1 z m 0,0"
             id="path11" />
        </g>
        <g
           transform="translate(174.44107,399.28631)"
           id="g13">
          <text
             xml:space="preserve"
             style="font-style:normal;font-weight:normal;font-size:37.49999619px;line-height:1.25;font-family:sans-serif;letter-spacing:0px;word-spacing:0px;fill:#000000;fill-opacity:1;stroke:none;stroke-width:0.93749994"
             x="131.51338"
             y="30.476837"
             id="text26"><tspan
               sodipodi:role="line"
               id="tspan24"
               x="131.51338"
               y="30.476837"
               style="font-style:normal;font-variant:normal;font-weight:normal;font-stretch:normal;font-size:22.49999809px;font-family:'Arabic Typesetting';-inkscape-font-specification:'Arabic Typesetting, Normal';font-variant-ligatures:normal;font-variant-caps:normal;font-variant-numeric:normal;font-feature-settings:normal;text-align:start;writing-mode:lr-tb;text-anchor:start;fill:#4d4d4d;stroke-width:0.93749994">Start your Journey now</tspan></text>
        </g>
        <text
           xml:space="preserve"
           style="font-style:normal;font-weight:normal;font-size:37.49999619px;line-height:1.25;font-family:sans-serif;letter-spacing:0px;word-spacing:0px;fill:#000000;fill-opacity:1;stroke:none;stroke-width:0.93749994"
           x="307.25449"
           y="447.09436"
           id="text104"><tspan
             sodipodi:role="line"
             id="tspan102"
             x="307.25449"
             y="447.09436"
             style="font-style:normal;font-variant:normal;font-weight:bold;font-stretch:normal;font-size:14.99999905px;font-family:Aharoni;-inkscape-font-specification:'Aharoni, Bold';font-variant-ligatures:normal;font-variant-caps:normal;font-variant-numeric:normal;font-feature-settings:normal;text-align:start;writing-mode:lr-tb;text-anchor:start;fill:#4d4d4d;stroke-width:0.93749994">request@youngactorscamp.com</tspan></text>
      </g>
    </g>
  </g>
</svg>
