<?xml version="1.0" encoding="UTF-8" standalone="no"?>
<!-- Created with Inkscape (http://www.inkscape.org/) -->

<svg
   xmlns:dc="http://purl.org/dc/elements/1.1/"
   xmlns:cc="http://creativecommons.org/ns#"
   xmlns:rdf="http://www.w3.org/1999/02/22-rdf-syntax-ns#"
   xmlns:svg="http://www.w3.org/2000/svg"
   xmlns="http://www.w3.org/2000/svg"
   xmlns:sodipodi="http://sodipodi.sourceforge.net/DTD/sodipodi-0.dtd"
   xmlns:inkscape="http://www.inkscape.org/namespaces/inkscape"
   width="56.75489mm"
   height="25.202444mm"
   viewBox="0 0 201.10001 89.299998"
   id="svg4812"
   version="1.1"
   inkscape:version="0.91 r13725"
   sodipodi:docname="catch-us-here.svg">
  <defs
     id="defs4814" />
  <sodipodi:namedview
     id="base"
     pagecolor="#ffffff"
     bordercolor="#666666"
     borderopacity="1.0"
     inkscape:pageopacity="0.0"
     inkscape:pageshadow="2"
     inkscape:zoom="0.35"
     inkscape:cx="-52.142857"
     inkscape:cy="520"
     inkscape:document-units="px"
     inkscape:current-layer="layer1"
     showgrid="false"
     fit-margin-top="0"
     fit-margin-left="0"
     fit-margin-right="0"
     fit-margin-bottom="0"
     inkscape:window-width="1366"
     inkscape:window-height="705"
     inkscape:window-x="-8"
     inkscape:window-y="-8"
     inkscape:window-maximized="1" />
  <metadata
     id="metadata4817">
    <rdf:RDF>
      <cc:Work
         rdf:about="">
        <dc:format>image/svg+xml</dc:format>
        <dc:type
           rdf:resource="http://purl.org/dc/dcmitype/StillImage" />
        <dc:title></dc:title>
      </cc:Work>
    </rdf:RDF>
  </metadata>
  <g
     inkscape:label="Layer 1"
     inkscape:groupmode="layer"
     id="layer1"
     transform="translate(0,-963.0622)">
    <g
       transform="translate(-578.4,816.6622)"
       id="g585">
      <g
         style="opacity:0.1"
         id="g587">
        <g
           id="g589">
          <path
             inkscape:connector-curvature="0"
             d="m 580.9,185 16.9,0 0,17.9 15.5,0 0,-17.9 16.9,0 0,50.7 -16.9,0 0,-18.2 -15.5,0 0,18.2 -16.9,0 0,-50.7 z"
             id="path591" />
          <path
             inkscape:connector-curvature="0"
             d="m 636.1,185 43.2,0 0,13.9 -26.6,0 0,5.1 24.8,0 0,12.2 -24.8,0 0,5.5 26.9,0 0,13.9 -43.6,0 0,-50.6 z"
             id="path593" />
          <path
             inkscape:connector-curvature="0"
             d="m 684.2,185 24.8,0 c 4.5,0 8.3,0.5 11.2,1.6 2.9,1 5.3,2.5 7.1,4.2 1.5,1.5 2.7,3.3 3.5,5.2 0.8,1.9 1.2,4.2 1.2,6.8 l 0,0.1 c 0,3.7 -0.9,6.9 -2.7,9.4 -1.8,2.6 -4.2,4.6 -7.3,6.1 l 11.8,17.2 -19.3,0 -9.6,-14.5 -0.1,0 -3.5,0 0,14.5 -16.9,0 0,-50.6 z m 24.3,24.1 c 2,0 3.6,-0.4 4.8,-1.3 1.2,-0.9 1.7,-2.1 1.7,-3.6 l 0,-0.2 c 0,-1.6 -0.6,-2.9 -1.7,-3.7 -1.2,-0.8 -2.7,-1.2 -4.7,-1.2 l -7.4,0 0,9.9 7.3,0 z"
             id="path595" />
          <path
             inkscape:connector-curvature="0"
             d="m 736,185 43.2,0 0,13.9 -26.6,0 0,5.1 24.8,0 0,12.2 -24.8,0 0,5.5 26.9,0 0,13.9 -43.5,0 0,-50.6 z"
             id="path597" />
        </g>
        <g
           id="g599">
          <path
             inkscape:connector-curvature="0"
             d="m 578.4,163.6 0,0 c 0,-8 6.2,-13.9 14.1,-13.9 5.8,0 9.8,2.8 12,6.9 l -7.3,4.3 c -1,-1.9 -2.4,-3.2 -4.8,-3.2 -3,0 -5,2.6 -5,5.8 l 0,0.1 c 0,3.5 2,5.9 5,5.9 2.5,0 3.9,-1.4 5,-3.3 l 7.3,4.1 c -2.2,3.9 -6,7.2 -12.6,7.2 -7.3,-0.1 -13.7,-5.7 -13.7,-13.9 z"
             id="path601" />
          <path
             inkscape:connector-curvature="0"
             d="m 615.2,150.1 8.8,0 11.2,26.7 -9.6,0 -1.4,-3.6 -9.3,0 -1.4,3.6 -9.5,0 11.2,-26.7 z m 6.8,16.9 -2.4,-6.4 -2.4,6.4 4.8,0 z"
             id="path603" />
          <path
             inkscape:connector-curvature="0"
             d="m 639.7,157.8 -7.8,0 0,-7.5 24.5,0 0,7.5 -7.8,0 0,19 -8.9,0 0,-19 z"
             id="path605" />
          <path
             inkscape:connector-curvature="0"
             d="m 656.6,163.6 0,0 c 0,-8 6.2,-13.9 14.1,-13.9 5.8,0 9.8,2.8 12,6.9 l -7.3,4.3 c -1,-1.9 -2.4,-3.2 -4.8,-3.2 -3,0 -5,2.6 -5,5.8 l 0,0.1 c 0,3.5 2,5.9 5,5.9 2.5,0 3.9,-1.4 5,-3.3 l 7.3,4.1 c -2.2,3.9 -6,7.2 -12.6,7.2 -7.3,-0.1 -13.7,-5.7 -13.7,-13.9 z"
             id="path607" />
          <path
             inkscape:connector-curvature="0"
             d="m 684.7,150.3 8.9,0 0,9.4 8.1,0 0,-9.4 8.9,0 0,26.5 -8.9,0 0,-9.5 -8.1,0 0,9.5 -8.9,0 0,-26.5 z"
             id="path609" />
          <path
             inkscape:connector-curvature="0"
             d="m 723,164.9 0,-14.6 9,0 0,14.5 c 0,3.3 1.7,4.7 4.1,4.7 2.4,0 4.1,-1.3 4.1,-4.5 l 0,-14.7 9,0 0,14.4 c 0,9.1 -5.3,12.6 -13.2,12.6 -7.9,0 -13,-3.6 -13,-12.4 z"
             id="path611" />
          <path
             inkscape:connector-curvature="0"
             d="m 749.8,172.8 4.7,-5.6 c 2.9,2.2 6.2,3.1 9.3,3.1 1.6,0 2.3,-0.4 2.3,-1.1 l 0,-0.1 c 0,-0.8 -0.8,-1.2 -3.7,-1.7 -6,-1.2 -11.2,-2.9 -11.2,-8.5 l 0,-0.1 c 0,-5 3.9,-8.9 11.3,-8.9 5.1,0 8.9,1.2 12,3.6 l -4.3,6 c -2.5,-1.8 -5.5,-2.6 -8,-2.6 -1.3,0 -1.9,0.5 -1.9,1.1 l 0,0.1 c 0,0.7 0.7,1.2 3.5,1.7 6.8,1.3 11.3,3.2 11.3,8.6 l 0,0.1 c 0,5.6 -4.6,9 -11.7,9 -5.4,-0.2 -10.2,-1.7 -13.6,-4.7 z"
             id="path613" />
        </g>
      </g>
      <g
         id="g615">
        <g
           id="g617">
          <path
             style="fill:#ffffff"
             inkscape:connector-curvature="0"
             d="m 578.4,160.3 0,0 c 0,-8 6.2,-13.9 14.1,-13.9 5.8,0 9.8,2.8 12,6.9 l -7.3,4.3 c -1,-1.9 -2.4,-3.2 -4.8,-3.2 -3,0 -5,2.6 -5,5.8 l 0,0.1 c 0,3.5 2,5.9 5,5.9 2.5,0 3.9,-1.4 5,-3.3 l 7.3,4.1 c -2.2,3.9 -6,7.2 -12.6,7.2 -7.3,-0.1 -13.7,-5.7 -13.7,-13.9 z"
             id="path619" />
          <path
             style="fill:#ffffff"
             inkscape:connector-curvature="0"
             d="m 615.2,146.8 8.8,0 11.2,26.7 -9.6,0 -1.4,-3.6 -9.3,0 -1.4,3.6 -9.5,0 11.2,-26.7 z m 6.8,16.8 -2.4,-6.4 -2.4,6.4 4.8,0 z"
             id="path621" />
          <path
             style="fill:#ffffff"
             inkscape:connector-curvature="0"
             d="m 639.7,154.5 -7.8,0 0,-7.5 24.5,0 0,7.5 -7.8,0 0,19 -8.9,0 0,-19 z"
             id="path623" />
          <path
             style="fill:#ffffff"
             inkscape:connector-curvature="0"
             d="m 656.6,160.3 0,0 c 0,-8 6.2,-13.9 14.1,-13.9 5.8,0 9.8,2.8 12,6.9 l -7.3,4.3 c -1,-1.9 -2.4,-3.2 -4.8,-3.2 -3,0 -5,2.6 -5,5.8 l 0,0.1 c 0,3.5 2,5.9 5,5.9 2.5,0 3.9,-1.4 5,-3.3 l 7.3,4.1 c -2.2,3.9 -6,7.2 -12.6,7.2 -7.3,-0.1 -13.7,-5.7 -13.7,-13.9 z"
             id="path625" />
          <path
             style="fill:#ffffff"
             inkscape:connector-curvature="0"
             d="m 684.7,147 8.9,0 0,9.4 8.1,0 0,-9.4 8.9,0 0,26.5 -8.9,0 0,-9.5 -8.1,0 0,9.5 -8.9,0 0,-26.5 z"
             id="path627" />
          <path
             style="fill:#ffffff"
             inkscape:connector-curvature="0"
             d="m 723,161.6 0,-14.6 9,0 0,14.5 c 0,3.3 1.7,4.7 4.1,4.7 2.4,0 4.1,-1.3 4.1,-4.5 l 0,-14.7 9,0 0,14.4 c 0,9.1 -5.3,12.6 -13.2,12.6 -7.9,0 -13,-3.6 -13,-12.4 z"
             id="path629" />
          <path
             style="fill:#ffffff"
             inkscape:connector-curvature="0"
             d="m 749.8,169.5 4.7,-5.6 c 2.9,2.2 6.2,3.1 9.3,3.1 1.6,0 2.3,-0.4 2.3,-1.1 l 0,-0.1 c 0,-0.8 -0.8,-1.2 -3.7,-1.7 -6,-1.2 -11.2,-2.9 -11.2,-8.5 l 0,-0.1 c 0,-5 3.9,-8.9 11.3,-8.9 5.1,0 8.9,1.2 12,3.6 l -4.3,6 c -2.5,-1.8 -5.5,-2.6 -8,-2.6 -1.3,0 -1.9,0.5 -1.9,1.1 l 0,0.1 c 0,0.7 0.7,1.2 3.5,1.7 6.8,1.3 11.3,3.2 11.3,8.6 l 0,0.1 c 0,5.6 -4.6,9 -11.7,9 -5.4,-0.2 -10.2,-1.7 -13.6,-4.7 z"
             id="path631" />
        </g>
        <g
           id="g633">
          <path
             style="fill:#ffffff"
             inkscape:connector-curvature="0"
             d="m 578.6,180.5 16.9,0 0,17.9 15.5,0 0,-17.9 17,0 0,50.7 -17,0 0,-18.2 -15.5,0 0,18.2 -16.9,0 0,-50.7 z"
             id="path635" />
          <path
             style="fill:#ffffff"
             inkscape:connector-curvature="0"
             d="m 633.8,180.5 43.2,0 0,13.9 -26.6,0 0,5.1 24.8,0 0,12.2 -24.8,0 0,5.5 26.9,0 0,13.9 -43.6,0 0,-50.6 z"
             id="path637" />
          <path
             style="fill:#ffffff"
             inkscape:connector-curvature="0"
             d="m 681.9,180.5 24.8,0 c 4.5,0 8.3,0.5 11.2,1.6 2.9,1 5.3,2.5 7.1,4.2 1.5,1.5 2.7,3.3 3.5,5.2 0.8,1.9 1.2,4.2 1.2,6.8 l 0,0.1 c 0,3.7 -0.9,6.9 -2.7,9.4 -1.8,2.6 -4.2,4.6 -7.3,6.1 l 11.8,17.2 -19.3,0 -9.6,-14.5 -0.1,0 -3.5,0 0,14.5 -16.9,0 0,-50.6 z m 24.3,24.1 c 2,0 3.6,-0.4 4.8,-1.3 1.2,-0.9 1.7,-2.1 1.7,-3.6 l 0,-0.1 c 0,-1.6 -0.6,-2.9 -1.7,-3.7 -1.2,-0.8 -2.7,-1.2 -4.7,-1.2 l -7.4,0 0,9.9 7.3,0 z"
             id="path639" />
          <path
             style="fill:#ffffff"
             inkscape:connector-curvature="0"
             d="m 733.7,180.5 43.2,0 0,13.9 -26.6,0 0,5.1 24.8,0 0,12.2 -24.8,0 0,5.5 26.9,0 0,13.9 -43.6,0 0,-50.6 z"
             id="path641" />
        </g>
      </g>
    </g>
  </g>
</svg>
