<?xml version="1.0" encoding="UTF-8" standalone="no"?>
<!-- Created with Inkscape (http://www.inkscape.org/) -->

<svg
   xmlns:dc="http://purl.org/dc/elements/1.1/"
   xmlns:cc="http://creativecommons.org/ns#"
   xmlns:rdf="http://www.w3.org/1999/02/22-rdf-syntax-ns#"
   xmlns:svg="http://www.w3.org/2000/svg"
   xmlns="http://www.w3.org/2000/svg"
   xmlns:sodipodi="http://sodipodi.sourceforge.net/DTD/sodipodi-0.dtd"
   xmlns:inkscape="http://www.inkscape.org/namespaces/inkscape"
   width="256mm"
   height="256mm"
   viewBox="0 0 907.08661 907.08661"
   id="svg4605"
   version="1.1"
   inkscape:version="0.91 r13725"
   sodipodi:docname="overlay.svg">
  <defs
     id="defs4607" />
  <sodipodi:namedview
     id="base"
     pagecolor="#ffffff"
     bordercolor="#666666"
     borderopacity="1.0"
     inkscape:pageopacity="0.0"
     inkscape:pageshadow="2"
     inkscape:zoom="0.35"
     inkscape:cx="-52.142857"
     inkscape:cy="520"
     inkscape:document-units="px"
     inkscape:current-layer="layer1"
     showgrid="false"
     inkscape:window-width="1366"
     inkscape:window-height="705"
     inkscape:window-x="-8"
     inkscape:window-y="-8"
     inkscape:window-maximized="1" />
  <metadata
     id="metadata4610">
    <rdf:RDF>
      <cc:Work
         rdf:about="">
        <dc:format>image/svg+xml</dc:format>
        <dc:type
           rdf:resource="http://purl.org/dc/dcmitype/StillImage" />
        <dc:title></dc:title>
      </cc:Work>
    </rdf:RDF>
  </metadata>
  <g
     inkscape:label="Layer 1"
     inkscape:groupmode="layer"
     id="layer1"
     transform="translate(0,-145.27559)">
    <g
       transform="matrix(13.285889,0,0,13.285889,-1953.4545,-1790.6482)"
       id="g145"
       style="fill:#ffffff;fill-opacity:1">
      <path
         style="fill:#ffffff;fill-opacity:1"
         inkscape:connector-curvature="0"
         d="m 199.1,181.3 c -0.9,-1.3 -8,-11.5 -8.8,-12.5 -1.8,-2.5 -2.6,-3.2 -4,-3.2 -1.3,0 -2.5,0.9 -2.8,2.1 0,0.2 -0.3,3.8 -0.4,5.8 -0.7,0 -0.7,-0.5 -1.2,-1 -0.1,-0.1 -1.2,-0.1 -1.3,0 -0.5,0.5 -0.5,1 -1.2,1 -0.1,-2 -0.4,-5.6 -0.4,-5.8 -0.2,-1.2 -1.4,-2.1 -2.8,-2.1 -1.3,0 -2.2,0.7 -4,3.2 -0.7,1 -7.9,11.2 -8.8,12.5 -0.7,1.1 -1.3,3.1 -1.3,4.2 0,4.8 3.9,8.6 8.7,8.6 4.8,0 8.7,-3.9 8.7,-8.6 l 0,-2.2 c 0,-0.8 0,-1.3 0.9,-1.3 l 1.5,0 c 1,0 1.1,0.4 1.1,1.3 l 0,2.2 c 0,4.8 3.8,8.6 8.6,8.6 4.8,0 8.6,-3.9 8.6,-8.6 0.2,-1.1 -0.4,-3.1 -1.1,-4.2 l 0,0 z m -14.9,-11.1 c 0.8,-1.1 2,-1.7 3.5,-1.6 1.1,0 2,0.4 2,0.4 0.2,0.1 0.3,0.4 0.3,0.6 -0.1,0.2 -0.4,0.4 -0.6,0.3 0,0 -0.8,-0.3 -1.7,-0.3 -1.2,0 -2.1,0.4 -2.7,1.2 -0.1,0.1 -0.2,0.2 -0.4,0.2 -0.1,0 -0.2,0 -0.3,-0.1 -0.2,-0.2 -0.2,-0.5 -0.1,-0.7 l 0,0 z M 173,169 c 0,0 0.9,-0.4 2,-0.4 1.5,0 2.7,0.5 3.5,1.6 0.1,0.2 0.1,0.5 -0.1,0.6 -0.1,0.1 -0.2,0.1 -0.3,0.1 -0.1,0 -0.3,-0.1 -0.4,-0.2 -1.4,-2.1 -4.4,-0.9 -4.4,-0.9 -0.2,0.1 -0.5,0 -0.6,-0.3 0,-0.2 0.1,-0.4 0.3,-0.5 l 0,0 z m -2.1,22.8 c -3.4,0 -6.2,-2.8 -6.2,-6.2 0,-3.4 2.8,-6.2 6.2,-6.2 3.4,0 6.2,2.8 6.2,6.2 0,3.4 -2.7,6.2 -6.2,6.2 l 0,0 z m 10.5,-13 c -2.2,0 -4,-0.7 -4,-1.6 0,-0.9 1.8,-1.6 4,-1.6 2.2,0 4,0.7 4,1.6 0,0.9 -1.8,1.6 -4,1.6 l 0,0 z m 10.4,13 c -3.4,0 -6.2,-2.8 -6.2,-6.2 0,-3.4 2.8,-6.2 6.2,-6.2 3.4,0 6.2,2.8 6.2,6.2 0,3.4 -2.8,6.2 -6.2,6.2 l 0,0 z m 0,0"
         id="path147" />
    </g>
  </g>
</svg>
