<?xml version="1.0" encoding="UTF-8" standalone="no"?>
<!-- Created with Inkscape (http://www.inkscape.org/) -->

<svg
   xmlns:dc="http://purl.org/dc/elements/1.1/"
   xmlns:cc="http://creativecommons.org/ns#"
   xmlns:rdf="http://www.w3.org/1999/02/22-rdf-syntax-ns#"
   xmlns:svg="http://www.w3.org/2000/svg"
   xmlns="http://www.w3.org/2000/svg"
   xmlns:sodipodi="http://sodipodi.sourceforge.net/DTD/sodipodi-0.dtd"
   xmlns:inkscape="http://www.inkscape.org/namespaces/inkscape"
   width="120mm"
   height="110mm"
   viewBox="0 0 425.19685 389.76377"
   id="svg32894"
   version="1.1"
   inkscape:version="0.91 r13725"
   sodipodi:docname="talent.svg">
  <defs
     id="defs32896" />
  <sodipodi:namedview
     id="base"
     pagecolor="#d5d5d5"
     bordercolor="#666666"
     borderopacity="1.0"
     inkscape:pageopacity="0"
     inkscape:pageshadow="2"
     inkscape:zoom="0.98994949"
     inkscape:cx="51.940917"
     inkscape:cy="167.2335"
     inkscape:document-units="px"
     inkscape:current-layer="g32723"
     showgrid="false"
     fit-margin-top="0"
     fit-margin-left="0"
     fit-margin-right="0"
     fit-margin-bottom="0"
     inkscape:window-width="1366"
     inkscape:window-height="705"
     inkscape:window-x="-8"
     inkscape:window-y="-8"
     inkscape:window-maximized="1" />
  <metadata
     id="metadata32899">
    <rdf:RDF>
      <cc:Work
         rdf:about="">
        <dc:format>image/svg+xml</dc:format>
        <dc:type
           rdf:resource="http://purl.org/dc/dcmitype/StillImage" />
        <dc:title />
      </cc:Work>
    </rdf:RDF>
  </metadata>
  <g
     inkscape:label="Layer 1"
     inkscape:groupmode="layer"
     id="layer1"
     transform="translate(-302.04129,-203.72263)">
    <g
       transform="translate(-93.710285,-2694.4079)"
       id="g32723">
      <g
         id="Cloud3"
         inkscape:label="#g21050">
        <path
           style="fill:#ffffff"
           inkscape:connector-curvature="0"
           id="path21052"
           d="m 666.4,3001.4 c -0.7,0 -1.4,0.1 -2.1,0.2 -2,-5.6 -7.3,-9.6 -13.6,-9.6 -3.2,0 -6.1,1 -8.5,2.8 -3,-4.9 -8.4,-8.1 -14.6,-8.1 -6.3,0 -11.8,3.4 -14.7,8.4 -1.1,-0.3 -2.3,-0.5 -3.5,-0.5 -7.2,0 -13.1,5.8 -13.1,13 0,7.2 5.7,13 12.9,13 0,0 0,0 0,0 l 0,0.4 57.1,0 0,0 c 5.3,0 9.7,-4.5 9.7,-9.8 0.1,-5.3 -4.2,-9.8 -9.6,-9.8" />
        <path
           style="fill:#fcecec"
           inkscape:connector-curvature="0"
           id="path21054"
           d="m 646.6,2999.2 c 2.4,-1.7 5.3,-2.8 8.5,-2.8 2.9,0 5.5,0.8 7.8,2.3 -2.6,-3.9 -7,-6.6 -12.1,-6.6 -3.1,0 -5.9,1 -8.2,2.6 1.5,1.2 2.9,2.7 4,4.5" />
        <path
           style="fill:#fcecec"
           inkscape:connector-curvature="0"
           id="path21056"
           d="m 600.8,3011.9 c 0,-7.2 5.8,-13 13.1,-13 1.2,0 2.4,0.2 3.5,0.5 3,-5 8.4,-8.4 14.7,-8.4 3.6,0 7,1.1 9.7,3 -3.1,-4.4 -8.2,-7.3 -14,-7.3 -6.3,0 -11.8,3.4 -14.7,8.4 -1.1,-0.3 -2.3,-0.5 -3.5,-0.5 -7.2,0 -13.1,5.8 -13.1,13 0,4.7 2.5,8.8 6.3,11 -1.3,-1.9 -2,-4.2 -2,-6.7" />
      </g>
      <g
         id="Cloud2"
         inkscape:label="#g21060">
        <path
           style="fill:#ffffff"
           inkscape:connector-curvature="0"
           id="path21062"
           d="m 677.8,3101 c 0,-8 -6.5,-14.5 -14.6,-14.5 -2.6,0 -5,0.7 -7.1,1.9 -2.8,-8.1 -10.5,-13.8 -19.5,-13.8 -8.5,0 -15.9,5.1 -19,12.5 -1.2,-0.3 -2.4,-0.5 -3.7,-0.5 -5.6,0 -10.4,3.1 -12.9,7.7 -1.4,-0.7 -3,-1.1 -4.7,-1.1 -6.2,0 -11.4,5 -11.4,11.1 0,5.7 4.2,10.4 9.8,11.1 l 0,0.2 68.7,0 0,-0.1 c 7.6,-0.2 14.4,-6.6 14.4,-14.5" />
        <path
           style="fill:#fcecec"
           inkscape:connector-curvature="0"
           id="path21064"
           d="m 589.2,3108.6 c 0,-6.2 5,-11.1 11.2,-11.1 1.7,0 3.3,0.4 4.7,1.1 2.4,-4.6 7.3,-7.7 12.9,-7.7 1.3,0 2.5,0.2 3.7,0.5 3.1,-7.3 10.5,-12.5 19,-12.5 4.6,0 8.8,1.5 12.3,4 -3.8,-5 -9.8,-8.3 -16.6,-8.3 -8.5,0 -15.9,5.1 -19,12.5 -1.2,-0.3 -2.4,-0.5 -3.7,-0.5 -5.6,0 -10.4,3.1 -12.9,7.7 -1.4,-0.7 -3,-1.1 -4.7,-1.1 -6.2,0 -11.2,5 -11.2,11.1 0,4.2 2.3,7.8 5.8,9.7 -0.9,-1.6 -1.5,-3.5 -1.5,-5.4" />
      </g>
      <g
         id="Cloud4"
         inkscape:label="#g21066">
        <path
           style="fill:#ffffff"
           inkscape:connector-curvature="0"
           id="path21068"
           d="m 682.6,3035.8 c 1.6,0 3.1,0.2 4.6,0.6 4,-8.4 12.6,-14.3 22.6,-14.5 5.9,-10.1 16.9,-17 29.5,-17 17.8,0 32.4,13.6 33.9,30.9 0.2,0 0.3,0 0.5,0 10.2,0 18.5,8.2 18.5,18.3 0,10.1 -8.3,18.5 -18.5,18.5 -1.1,0 -2.2,-0.1 -3.3,-0.1 l -26.7,0 c -1.4,0 -2.9,0.3 -4.4,0.3 -1.5,0 -3,-0.3 -4.4,-0.3 l -20.8,0 c -1.3,0 -2.6,0.3 -3.9,0.3 -1.3,0 -2.6,-0.3 -3.9,-0.3 l -20.5,0 c -1.1,0 -2.1,0.1 -3.3,0.1 -10.2,0 -18.5,-8.3 -18.5,-18.4 0.1,-10.2 8.4,-18.4 18.6,-18.4" />
        <path
           style="fill:#fcecec"
           inkscape:connector-curvature="0"
           id="path21070"
           d="m 668.5,3058.4 c 0,-10.1 8.3,-18.3 18.5,-18.3 1.6,0 3.1,0.2 4.6,0.6 4,-8.4 12.6,-14.3 22.6,-14.5 5.9,-10.1 16.9,-17 29.5,-17 8.3,0 15.9,2.9 21.8,7.8 -6.2,-7.4 -15.6,-12.1 -26.1,-12.1 -12.6,0 -23.6,6.8 -29.5,17 -10,0.2 -18.6,6.1 -22.6,14.5 -1.5,-0.4 -3,-0.6 -4.6,-0.6 -10.2,0 -18.5,8.2 -18.5,18.3 0,6.2 3.1,11.6 7.8,14.9 -2.3,-3 -3.5,-6.7 -3.5,-10.6" />
      </g>
      <g
         id="Cloud1"
         inkscape:label="#g21104">
        <path
           style="fill:#ffffff"
           inkscape:connector-curvature="0"
           id="path21106"
           d="m 435.6,3064.4 c 0.9,0 1.7,0.1 2.6,0.3 2.2,-4.7 7,-7.9 12.5,-8 3.3,-5.6 9.4,-9.4 16.4,-9.4 9.9,0 18,7.6 18.8,17.2 0.1,0 0.2,0 0.3,0 5.7,0 10.3,4.6 10.3,10.2 0,5.6 -4.6,10.2 -10.3,10.2 -0.6,0 -1.2,-0.1 -1.8,-0.1 l -14.8,0 c -0.8,0 -1.6,0.2 -2.4,0.2 -0.8,0 -1.6,-0.2 -2.4,-0.2 l -11.5,0 c -0.7,0 -1.4,0.2 -2.1,0.2 -0.7,0 -1.4,-0.2 -2.1,-0.2 l -11.4,0 c -0.6,0 -1.2,0.1 -1.8,0.1 -5.7,0 -10.3,-4.6 -10.3,-10.2 -0.3,-5.7 4.3,-10.3 10,-10.3" />
        <path
           style="fill:#fcecec"
           inkscape:connector-curvature="0"
           id="path21108"
           d="m 428.9,3079.5 c 0,-5.6 4.6,-10.2 10.3,-10.2 0.9,0 1.7,0.1 2.6,0.3 2.2,-4.7 7,-7.9 12.5,-8.1 3.3,-5.6 9.4,-9.4 16.4,-9.4 4.1,0 7.9,1.3 11,3.5 -3.4,-4.7 -9,-7.8 -15.4,-7.8 -7,0 -13.1,3.8 -16.4,9.4 -5.5,0.1 -10.3,3.4 -12.5,8.1 -0.8,-0.2 -1.7,-0.3 -2.6,-0.3 -5.7,0 -10.3,4.5 -10.3,10.2 0,3.9 2.2,7.3 5.5,9 -0.7,-1.4 -1.1,-3 -1.1,-4.7" />
      </g>
      <g
         id="Balloon"
         inkscape:label="#g21074"
         transform="translate(10,0)">
        <path
           style="fill:#fcf5eb"
           inkscape:connector-curvature="0"
           id="path21076"
           d="m 480.4,3023.4 57,81.2 -7.3,1.9 -88.1,-73.7 c 0,0 -8.1,-7.5 -3.6,-10.5 4.5,-3 27.4,-7.1 27.4,-7.1 l 12.1,2.5 2.5,5.7 z" />
        <path
           style="fill:#fcd071"
           inkscape:connector-curvature="0"
           id="path21078"
           d="m 496,2930.6 c 0,0 -36.2,42.4 -16,92.4 0,0 -24.8,-10.1 -42.3,4.1 0,0 -5.8,-78.3 58.3,-96.5 z" />
        <path
           style="fill:#f7e8c6"
           inkscape:connector-curvature="0"
           id="path21080"
           d="m 554.3,3004.4 -10.7,98.7 7.3,-1.9 41.5,-107.1 c 0,0 3.4,-10.5 -1.9,-10.9 -5.3,-0.4 -27.4,7.1 -27.4,7.1 l -9.4,8.1 0.6,6 z" />
        <polygon
           style="fill:#fff0d6"
           id="polygon21082"
           points="535,3105.3 543.6,3103 554.3,3004.4 527.3,2993 498.4,3000.3 480,3023 " />
        <g
           id="g21084">
          <g
             id="g21086">
            <path
               style="fill:#dd9002"
               inkscape:connector-curvature="0"
               id="path21088"
               d="m 544.3,3102.1 -10,2.6 -0.4,-0.6 -55.4,-82.8 19.1,-23.6 29.6,-7.4 28,11.7 -10.9,100.1 z m -9.1,0.3 7.2,-1.9 10.5,-97.3 -26,-10.9 -28.3,7.1 -17.7,21.9 54.3,81.1 z" />
          </g>
        </g>
        <path
           style="fill:#dd9002"
           inkscape:connector-curvature="0"
           id="path21090"
           d="m 494.6,2931 c 0,0 53.2,19.8 59.7,73.4 0,0 15.4,-20.4 38.3,-16.6 0,-0.1 -33.1,-71.8 -98,-56.8 z" />
        <path
           style="fill:#fbaf1d"
           inkscape:connector-curvature="0"
           id="path21092"
           d="m 494.3,2930.7 c 0,0 -36.8,39.8 -14.1,92.7 0,0 32.6,-31.1 74.1,-19.1 0,0.1 -0.6,-49.8 -60,-73.6 z" />
        <g
           id="g21094">
          <g
             id="g21096">
            <path
               style="fill:#dd9002"
               inkscape:connector-curvature="0"
               id="path21098"
               d="m 544.5,3121.3 -101.9,-85.2 c -0.8,-0.5 -5.2,-3.6 -6.6,-10.7 l 0,-0.2 c 0,-0.8 -1.3,-80.4 58,-95.7 l 0,0 c 0,0 0.4,-0.1 1.2,-0.3 0.6,-0.2 1,-0.3 1,-0.3 l 0,0 c 59.3,-15.3 96.6,55.1 97,55.8 l 0.1,0.2 c 2.2,7 -0.2,11.8 -0.6,12.6 l -48.2,123.8 z M 438.4,3025 c 1.3,6.4 5.3,8.8 5.5,8.9 l 0.2,0.1 99.3,83 46.9,-120.9 c 0.1,-0.2 2.4,-4.2 0.5,-10.4 -1.6,-3 -37.7,-68.8 -94.1,-54.3 0,0 -0.4,0.1 -1,0.3 -0.8,0.2 -1.2,0.3 -1.2,0.3 -56.3,14.5 -56.1,89.6 -56.1,93 z" />
          </g>
        </g>
        <path
           style="fill:#070602"
           inkscape:connector-curvature="0"
           id="path21100"
           d="m 522.9,3103.2 c 8.8,-10.4 19.2,-12.5 31.6,-7.7 l -10,25.8 -21.6,-18.1 z" />
        <path
           style="opacity:0.5;fill:#ffffff"
           inkscape:connector-curvature="0"
           id="path21102"
           d="m 526.3,3103.3 c 0,0 5.4,-6.9 11.8,-6.5 l 5.3,20.5 -17.1,-14 z" />
      </g>
      <g
         id="Cloud5"
         inkscape:label="#g21110">
        <path
           style="fill:#ffffff"
           inkscape:connector-curvature="0"
           id="path21112"
           d="m 691.1,3240 c 0.9,0 1.7,0.1 2.6,0.3 2.2,-4 7,-6.8 12.6,-6.9 3.3,-4.9 9.4,-8.1 16.4,-8.1 9.9,0 18.1,6.5 18.9,14.8 0.1,0 0.2,0 0.3,0 5.7,0 10.3,3.9 10.3,8.8 0,4.9 -4.6,8.8 -10.3,8.8 -0.6,0 -1.2,-0.1 -1.8,-0.1 l -14.9,0 c -0.8,0 -1.6,0.1 -2.4,0.1 -0.8,0 -1.6,-0.1 -2.4,-0.1 l -11.6,0 c -0.7,0 -1.4,0.1 -2.2,0.1 -0.7,0 -1.5,-0.1 -2.2,-0.1 l -11.4,0 c -0.6,0 -1.2,0.1 -1.8,0.1 -5.7,0 -10.3,-3.9 -10.3,-8.8 -0.1,-5 4.5,-8.9 10.2,-8.9" />
        <path
           style="fill:#fcecec"
           inkscape:connector-curvature="0"
           id="path21114"
           d="m 684.4,3253 c 0,-4.8 4.6,-8.7 10.3,-8.7 0.9,0 1.7,0.1 2.6,0.3 2.2,-4 7,-6.8 12.6,-6.9 3.3,-4.9 9.4,-8.1 16.4,-8.1 4.1,0 7.9,1.1 11,3 -3.4,-4.1 -9,-6.7 -15.4,-6.7 -7,0 -13.2,3.3 -16.4,8.1 -5.6,0.1 -10.3,2.9 -12.6,6.9 -0.8,-0.2 -1.7,-0.3 -2.6,-0.3 -5.7,0 -10.3,3.9 -10.3,8.7 0,3.4 2.2,6.3 5.5,7.7 -0.7,-1.2 -1.1,-2.6 -1.1,-4" />
      </g>
      <g
         id="g28644">
        <g
           style="opacity:0.1"
           id="g28646">
          <g
             id="g28648">
            <g
               id="g28650">
              <path
                 inkscape:connector-curvature="0"
                 id="path28652"
                 d="m 469.6,3219.6 33.2,0 0,11.3 -20,0 0,5 18.5,0 0,10.3 -18.5,0 0,13 -13.3,0 0,-39.6 z" />
              <path
                 inkscape:connector-curvature="0"
                 id="path28654"
                 d="m 505.9,3219.6 13.3,0 0,28.4 18.7,0 0,11.3 -31.9,0 0,-39.7 z" />
              <path
                 inkscape:connector-curvature="0"
                 id="path28656"
                 d="m 552.6,3245.2 -15,-25.6 14.9,0 6.8,13 6.9,-13 14.7,0 -15,25.5 0,14.2 -13.3,0 0,-14.1 z" />
            </g>
          </g>
          <g
             id="g28658">
            <g
               id="g28660">
              <path
                 inkscape:connector-curvature="0"
                 id="path28662"
                 d="m 467,3149.2 6.9,0 4.3,7 4.3,-7 6.9,0 0,19.9 -6.6,0 0,-9.9 -4.6,7.1 -0.1,0 -4.6,-7.1 0,9.9 -6.5,0 0,-19.9 z" />
              <path
                 inkscape:connector-curvature="0"
                 id="path28664"
                 d="m 498.7,3149.1 6.6,0 8.4,20.1 -7.2,0 -1.1,-2.7 -7,0 -1,2.7 -7.1,0 8.4,-20.1 z m 5,12.6 -1.8,-4.8 -1.8,4.8 3.6,0 z" />
              <path
                 inkscape:connector-curvature="0"
                 id="path28666"
                 d="m 514.5,3149.2 6.7,0 0,7.5 5.7,-7.5 7.7,0 -6.9,8.7 7.1,11.3 -7.9,0 -3.9,-6.3 -1.7,2.1 0,4.2 -6.7,0 0,-20 z" />
              <path
                 inkscape:connector-curvature="0"
                 id="path28668"
                 d="m 535.3,3149.2 17,0 0,5.5 -10.4,0 0,2 9.7,0 0,4.8 -9.7,0 0,2.2 10.6,0 0,5.5 -17.1,0 0,-20 z" />
              <path
                 inkscape:connector-curvature="0"
                 id="path28670"
                 d="m 567.4,3162.1 -7.5,-12.9 7.5,0 3.4,6.5 3.4,-6.5 7.4,0 -7.6,12.8 0,7.1 -6.7,0 0,-7 z" />
              <path
                 inkscape:connector-curvature="0"
                 id="path28672"
                 d="m 592.6,3169.6 c -1.5,0 -3,-0.3 -4.3,-0.8 -1.3,-0.5 -2.5,-1.3 -3.4,-2.2 -1,-0.9 -1.7,-2 -2.3,-3.3 -0.6,-1.3 -0.8,-2.6 -0.8,-4.1 l 0,-0.1 c 0,-1.4 0.3,-2.8 0.8,-4.1 0.6,-1.3 1.3,-2.4 2.3,-3.3 1,-0.9 2.1,-1.7 3.5,-2.2 1.3,-0.5 2.8,-0.8 4.3,-0.8 1.5,0 3,0.3 4.3,0.8 1.3,0.5 2.5,1.3 3.4,2.2 1,0.9 1.7,2 2.3,3.3 0.6,1.3 0.8,2.6 0.8,4.1 l 0,0.1 c 0,1.4 -0.3,2.8 -0.8,4.1 -0.6,1.3 -1.3,2.4 -2.3,3.3 -1,0.9 -2.1,1.7 -3.5,2.2 -1.3,0.5 -2.7,0.8 -4.3,0.8 z m 0.1,-5.9 c 0.6,0 1.2,-0.1 1.7,-0.4 0.5,-0.2 0.9,-0.6 1.3,-1 0.4,-0.4 0.6,-0.9 0.8,-1.4 0.2,-0.5 0.3,-1.1 0.3,-1.7 l 0,-0.1 c 0,-0.6 -0.1,-1.2 -0.3,-1.7 -0.2,-0.5 -0.5,-1 -0.8,-1.4 -0.4,-0.4 -0.8,-0.7 -1.3,-1 -0.5,-0.2 -1.1,-0.4 -1.7,-0.4 -0.6,0 -1.2,0.1 -1.7,0.4 -0.5,0.2 -0.9,0.6 -1.3,1 -0.4,0.4 -0.6,0.9 -0.8,1.4 -0.2,0.5 -0.3,1.1 -0.3,1.7 l 0,0.1 c 0,0.6 0.1,1.2 0.3,1.7 0.2,0.5 0.5,1 0.8,1.4 0.4,0.4 0.8,0.8 1.3,1 0.5,0.2 1,0.4 1.7,0.4 z" />
              <path
                 inkscape:connector-curvature="0"
                 id="path28674"
                 d="m 615,3169.5 c -1.5,0 -2.8,-0.2 -4,-0.5 -1.2,-0.4 -2.2,-0.9 -3.1,-1.7 -0.9,-0.8 -1.5,-1.7 -2,-2.9 -0.5,-1.2 -0.7,-2.6 -0.7,-4.2 l 0,-11 6.8,0 0,10.9 c 0,1.2 0.3,2.1 0.9,2.7 0.6,0.6 1.3,0.8 2.2,0.8 0.9,0 1.7,-0.3 2.2,-0.8 0.6,-0.5 0.9,-1.4 0.9,-2.6 l 0,-11 6.8,0 0,10.8 c 0,1.7 -0.2,3.2 -0.7,4.4 -0.5,1.2 -1.1,2.2 -2,2.9 -0.9,0.8 -1.9,1.3 -3.1,1.7 -1.4,0.4 -2.8,0.5 -4.2,0.5 z" />
              <path
                 inkscape:connector-curvature="0"
                 id="path28676"
                 d="m 627,3149.2 9.7,0 c 1.8,0 3.3,0.2 4.4,0.6 1.1,0.4 2.1,1 2.8,1.7 0.6,0.6 1.1,1.3 1.4,2.1 0.3,0.8 0.5,1.7 0.5,2.7 l 0,0.1 c 0,1.5 -0.4,2.7 -1.1,3.7 -0.7,1 -1.7,1.8 -2.9,2.4 l 4.6,6.8 -7.6,0 -3.8,-5.7 0,0 -1.4,0 0,5.7 -6.6,0 0,-20.1 z m 9.5,9.5 c 0.8,0 1.4,-0.2 1.9,-0.5 0.5,-0.3 0.7,-0.8 0.7,-1.4 l 0,-0.1 c 0,-0.6 -0.2,-1.1 -0.7,-1.4 -0.5,-0.3 -1.1,-0.5 -1.9,-0.5 l -2.9,0 0,3.9 2.9,0 z" />
            </g>
          </g>
          <g
             id="g28678">
            <g
               id="g28680">
              <path
                 inkscape:connector-curvature="0"
                 id="path28682"
                 d="m 478.8,3185.4 -11.7,0 0,-11.2 36.6,0 0,11.2 -11.7,0 0,28.5 -13.3,0 0,-28.5 z" />
              <path
                 inkscape:connector-curvature="0"
                 id="path28684"
                 d="m 520.6,3173.9 13.2,0 16.7,40 -14.4,0 -2.1,-5.3 -13.9,0 -2,5.3 -14.2,0 16.7,-40 z m 10.1,25.2 -3.6,-9.6 -3.6,9.6 7.2,0 z" />
              <path
                 inkscape:connector-curvature="0"
                 id="path28686"
                 d="m 552.1,3174.2 13.3,0 0,28.4 18.7,0 0,11.3 -31.9,0 0,-39.7 z" />
              <path
                 inkscape:connector-curvature="0"
                 id="path28688"
                 d="m 587,3174.2 33.9,0 0,10.9 -20.9,0 0,4 19.4,0 0,9.6 -19.4,0 0,4.3 21.1,0 0,10.9 -34.1,0 0,-39.7 z" />
              <path
                 inkscape:connector-curvature="0"
                 id="path28690"
                 d="m 624.7,3174.2 12.4,0 14.1,17.5 0,-17.5 13.2,0 0,39.7 -11.8,0 -14.7,-18.3 0,18.3 -13.2,0 0,-39.7 z" />
              <path
                 inkscape:connector-curvature="0"
                 id="path28692"
                 d="m 679.1,3185.4 -11.7,0 0,-11.2 36.6,0 0,11.2 -11.7,0 0,28.5 -13.3,0 0,-28.5 z" />
            </g>
          </g>
        </g>
        <g
           id="g28694">
          <g
             id="g28696">
            <g
               id="g28698">
              <path
                 style="fill:#ffffff"
                 inkscape:connector-curvature="0"
                 id="path28700"
                 d="m 464.9,3215.8 33.2,0 0,11.3 -20,0 0,5 18.5,0 0,10.3 -18.5,0 0,13 -13.3,0 0,-39.6 z" />
              <path
                 style="fill:#ffffff"
                 inkscape:connector-curvature="0"
                 id="path28702"
                 d="m 501.2,3215.8 13.3,0 0,28.4 18.7,0 0,11.3 -31.9,0 0,-39.7 z" />
              <path
                 style="fill:#ffffff"
                 inkscape:connector-curvature="0"
                 id="path28704"
                 d="m 547.9,3241.4 -15,-25.6 14.9,0 6.8,13 6.9,-13 14.7,0 -15,25.5 0,14.2 -13.3,0 0,-14.1 z" />
            </g>
          </g>
          <g
             id="g28706">
            <g
               id="g28708">
              <path
                 style="fill:#ffffff"
                 inkscape:connector-curvature="0"
                 id="path28710"
                 d="m 462.3,3145.4 6.9,0 4.3,7 4.3,-7 6.9,0 0,19.9 -6.6,0 0,-9.9 -4.6,7.1 -0.1,0 -4.6,-7.1 0,9.9 -6.5,0 0,-19.9 z" />
              <path
                 style="fill:#ffffff"
                 inkscape:connector-curvature="0"
                 id="path28712"
                 d="m 494,3145.2 6.6,0 8.4,20.1 -7.2,0 -1.1,-2.7 -7,0 -1,2.7 -7.1,0 8.4,-20.1 z m 5,12.7 -1.8,-4.8 -1.8,4.8 3.6,0 z" />
              <path
                 style="fill:#ffffff"
                 inkscape:connector-curvature="0"
                 id="path28714"
                 d="m 509.8,3145.4 6.7,0 0,7.5 5.7,-7.5 7.7,0 -6.9,8.7 7.1,11.3 -7.9,0 -3.9,-6.3 -1.7,2.1 0,4.2 -6.7,0 0,-20 z" />
              <path
                 style="fill:#ffffff"
                 inkscape:connector-curvature="0"
                 id="path28716"
                 d="m 530.6,3145.4 17,0 0,5.5 -10.4,0 0,2 9.7,0 0,4.8 -9.7,0 0,2.2 10.6,0 0,5.5 -17.1,0 0,-20 z" />
              <path
                 style="fill:#ffffff"
                 inkscape:connector-curvature="0"
                 id="path28718"
                 d="m 562.7,3158.3 -7.5,-12.9 7.5,0 3.4,6.5 3.4,-6.5 7.4,0 -7.5,12.8 0,7.1 -6.7,0 0,-7 z" />
              <path
                 style="fill:#ffffff"
                 inkscape:connector-curvature="0"
                 id="path28720"
                 d="m 587.9,3165.7 c -1.5,0 -3,-0.3 -4.3,-0.8 -1.3,-0.5 -2.5,-1.3 -3.4,-2.2 -1,-0.9 -1.7,-2 -2.3,-3.3 -0.6,-1.3 -0.8,-2.6 -0.8,-4.1 l 0,-0.1 c 0,-1.4 0.3,-2.8 0.8,-4.1 0.6,-1.3 1.3,-2.4 2.3,-3.3 1,-0.9 2.1,-1.7 3.5,-2.2 1.3,-0.5 2.8,-0.8 4.3,-0.8 1.5,0 3,0.3 4.3,0.8 1.3,0.5 2.5,1.3 3.4,2.2 1,0.9 1.7,2 2.3,3.3 0.6,1.3 0.8,2.6 0.8,4.1 l 0,0.1 c 0,1.4 -0.3,2.8 -0.8,4.1 -0.6,1.3 -1.3,2.4 -2.3,3.3 -1,0.9 -2.1,1.7 -3.5,2.2 -1.3,0.6 -2.7,0.8 -4.3,0.8 z m 0.1,-5.8 c 0.6,0 1.2,-0.1 1.7,-0.4 0.5,-0.2 0.9,-0.6 1.3,-1 0.4,-0.4 0.6,-0.9 0.8,-1.4 0.2,-0.5 0.3,-1.1 0.3,-1.7 l 0,-0.1 c 0,-0.6 -0.1,-1.2 -0.3,-1.7 -0.2,-0.5 -0.5,-1 -0.8,-1.4 -0.4,-0.4 -0.8,-0.7 -1.3,-1 -0.5,-0.2 -1.1,-0.4 -1.7,-0.4 -0.6,0 -1.2,0.1 -1.7,0.4 -0.5,0.2 -1,0.6 -1.3,1 -0.4,0.4 -0.6,0.9 -0.8,1.4 -0.2,0.5 -0.3,1.1 -0.3,1.7 l 0,0.1 c 0,0.6 0.1,1.2 0.3,1.7 0.2,0.5 0.5,1 0.8,1.4 0.4,0.4 0.8,0.8 1.3,1 0.4,0.2 1,0.4 1.7,0.4 z" />
              <path
                 style="fill:#ffffff"
                 inkscape:connector-curvature="0"
                 id="path28722"
                 d="m 610.3,3165.7 c -1.5,0 -2.8,-0.2 -4,-0.5 -1.2,-0.4 -2.2,-0.9 -3.1,-1.7 -0.9,-0.8 -1.5,-1.7 -2,-2.9 -0.5,-1.2 -0.7,-2.6 -0.7,-4.2 l 0,-11 6.8,0 0,10.9 c 0,1.2 0.3,2.1 0.9,2.7 0.6,0.6 1.3,0.8 2.2,0.8 0.9,0 1.7,-0.3 2.2,-0.8 0.6,-0.5 0.9,-1.4 0.9,-2.6 l 0,-11 6.8,0 0,10.8 c 0,1.7 -0.2,3.2 -0.7,4.4 -0.5,1.2 -1.1,2.2 -2,2.9 -0.9,0.8 -1.9,1.3 -3.1,1.7 -1.4,0.3 -2.8,0.5 -4.2,0.5 z" />
              <path
                 style="fill:#ffffff"
                 inkscape:connector-curvature="0"
                 id="path28724"
                 d="m 622.3,3145.4 9.7,0 c 1.8,0 3.3,0.2 4.4,0.6 1.1,0.4 2.1,1 2.8,1.7 0.6,0.6 1.1,1.3 1.4,2.1 0.3,0.8 0.5,1.7 0.5,2.7 l 0,0.1 c 0,1.5 -0.4,2.7 -1.1,3.7 -0.7,1 -1.7,1.8 -2.9,2.4 l 4.6,6.8 -7.6,0 -3.8,-5.7 -0.1,0 -1.4,0 0,5.7 -6.7,0 0,-20.1 z m 9.5,9.5 c 0.8,0 1.4,-0.2 1.9,-0.5 0.5,-0.3 0.7,-0.8 0.7,-1.4 l 0,-0.1 c 0,-0.6 -0.2,-1.1 -0.7,-1.4 -0.5,-0.3 -1.1,-0.5 -1.9,-0.5 l -2.9,0 0,3.9 2.9,0 z" />
            </g>
          </g>
          <g
             id="g28726">
            <g
               id="g28728">
              <path
                 style="fill:#ffffff"
                 inkscape:connector-curvature="0"
                 id="path28730"
                 d="m 474.1,3181.6 -11.7,0 0,-11.2 36.6,0 0,11.2 -11.7,0 0,28.5 -13.3,0 0,-28.5 z" />
              <path
                 style="fill:#ffffff"
                 inkscape:connector-curvature="0"
                 id="path28732"
                 d="m 515.9,3170.1 13.2,0 16.7,40 -14.4,0 -2.1,-5.3 -13.9,0 -2,5.3 -14.2,0 16.7,-40 z m 10.1,25.2 -3.6,-9.6 -3.6,9.6 7.2,0 z" />
              <path
                 style="fill:#ffffff"
                 inkscape:connector-curvature="0"
                 id="path28734"
                 d="m 547.4,3170.4 13.3,0 0,28.4 18.7,0 0,11.3 -31.9,0 0,-39.7 z" />
              <path
                 style="fill:#ffffff"
                 inkscape:connector-curvature="0"
                 id="path28736"
                 d="m 582.3,3170.4 33.9,0 0,10.9 -20.8,0 0,4 19.4,0 0,9.6 -19.4,0 0,4.3 21.1,0 0,10.9 -34.1,0 0,-39.7 z" />
              <path
                 style="fill:#ffffff"
                 inkscape:connector-curvature="0"
                 id="path28738"
                 d="m 620,3170.4 12.4,0 14.1,17.5 0,-17.5 13.2,0 0,39.7 -11.8,0 -14.7,-18.3 0,18.3 -13.2,0 0,-39.7 z" />
              <path
                 style="fill:#ffffff"
                 inkscape:connector-curvature="0"
                 id="path28740"
                 d="m 674.4,3181.6 -11.7,0 0,-11.2 36.6,0 0,11.2 -11.7,0 0,28.5 -13.3,0 0,-28.5 z" />
            </g>
          </g>
        </g>
      </g>
    </g>
  </g>
</svg>
