<?xml version="1.0" encoding="UTF-8" standalone="no"?>
<!-- Created with Inkscape (http://www.inkscape.org/) -->

<svg
   xmlns:dc="http://purl.org/dc/elements/1.1/"
   xmlns:cc="http://creativecommons.org/ns#"
   xmlns:rdf="http://www.w3.org/1999/02/22-rdf-syntax-ns#"
   xmlns:svg="http://www.w3.org/2000/svg"
   xmlns="http://www.w3.org/2000/svg"
   xmlns:sodipodi="http://sodipodi.sourceforge.net/DTD/sodipodi-0.dtd"
   xmlns:inkscape="http://www.inkscape.org/namespaces/inkscape"
   width="232.2"
   height="104.8"
   viewBox="0 0 232.19999 104.8"
   id="svg8223"
   version="1.1"
   inkscape:version="0.91 r13725"
   sodipodi:docname="we-love-yellow.svg">
  <defs
     id="defs8225" />
  <sodipodi:namedview
     id="base"
     pagecolor="#ffffff"
     bordercolor="#666666"
     borderopacity="1.0"
     inkscape:pageopacity="0.0"
     inkscape:pageshadow="2"
     inkscape:zoom="1.979899"
     inkscape:cx="119.86458"
     inkscape:cy="67.626906"
     inkscape:document-units="px"
     inkscape:current-layer="layer1"
     showgrid="false"
     fit-margin-top="20"
     fit-margin-left="20"
     fit-margin-right="0"
     fit-margin-bottom="20"
     units="px"
     inkscape:window-width="1366"
     inkscape:window-height="705"
     inkscape:window-x="-8"
     inkscape:window-y="-8"
     inkscape:window-maximized="1" />
  <metadata
     id="metadata8228">
    <rdf:RDF>
      <cc:Work
         rdf:about="">
        <dc:format>image/svg+xml</dc:format>
        <dc:type
           rdf:resource="http://purl.org/dc/dcmitype/StillImage" />
        <dc:title></dc:title>
      </cc:Work>
    </rdf:RDF>
  </metadata>
  <g
     inkscape:label="Layer 1"
     inkscape:groupmode="layer"
     id="layer1"
     transform="translate(0,-947.5622)">
    <g
       transform="matrix(0.93252798,0,0,0.93252798,-425.79201,414.61439)"
       id="we-love-text"
       inkscape:label="#g12119">
      <g
         id="g12121">
        <g
           style="opacity:0.1"
           id="g12123">
          <g
             id="g12125">
            <g
               id="g12127">
              <path
                 inkscape:connector-curvature="0"
                 d="m 478.8,643 -12.7,-21.8 12.6,0 5.8,11.1 5.8,-11.1 12.5,0 -12.7,21.6 0,12.2 -11.3,0 0,-12 z"
                 id="path12129" />
              <path
                 inkscape:connector-curvature="0"
                 d="m 503.9,621.3 28.7,0 0,9.2 -17.6,0 0,3.4 16.5,0 0,8.1 -16.5,0 0,3.7 17.9,0 0,9.2 -29,0 0,-33.6 z"
                 id="path12131" />
              <path
                 inkscape:connector-curvature="0"
                 d="m 536,621.3 11.3,0 0,24.1 15.8,0 0,9.6 -27.1,0 0,-33.7 z"
                 id="path12133" />
              <path
                 inkscape:connector-curvature="0"
                 d="m 565.5,621.3 11.3,0 0,24.1 15.8,0 0,9.6 -27.1,0 0,-33.7 z"
                 id="path12135" />
              <path
                 inkscape:connector-curvature="0"
                 d="m 612.7,655.7 c -2.6,0 -5,-0.4 -7.2,-1.3 -2.2,-0.9 -4.2,-2.1 -5.8,-3.7 -1.7,-1.6 -2.9,-3.4 -3.9,-5.6 -0.9,-2.1 -1.4,-4.4 -1.4,-6.9 l 0,-0.1 c 0,-2.4 0.5,-4.7 1.4,-6.9 0.9,-2.1 2.2,-4 3.9,-5.6 1.7,-1.6 3.6,-2.8 5.9,-3.8 2.2,-0.9 4.7,-1.4 7.3,-1.4 2.6,0 5,0.5 7.2,1.3 2.2,0.9 4.2,2.1 5.8,3.7 1.7,1.6 2.9,3.4 3.9,5.6 0.9,2.1 1.4,4.4 1.4,6.9 l 0,0.1 c 0,2.4 -0.5,4.7 -1.4,6.9 -0.9,2.1 -2.2,4 -3.9,5.6 -1.7,1.6 -3.6,2.8 -5.9,3.8 -2.3,1 -4.7,1.4 -7.3,1.4 z m 0.1,-10 c 1.1,0 2,-0.2 2.9,-0.6 0.9,-0.4 1.6,-1 2.2,-1.7 0.6,-0.7 1.1,-1.5 1.4,-2.4 0.3,-0.9 0.5,-1.8 0.5,-2.8 l 0,-0.1 c 0,-1 -0.2,-1.9 -0.5,-2.9 -0.3,-0.9 -0.8,-1.7 -1.4,-2.4 -0.6,-0.7 -1.3,-1.3 -2.2,-1.7 -0.9,-0.4 -1.8,-0.6 -2.9,-0.6 -1.1,0 -2,0.2 -2.9,0.6 -0.9,0.4 -1.6,1 -2.2,1.7 -0.6,0.7 -1.1,1.5 -1.4,2.4 -0.3,0.9 -0.5,1.8 -0.5,2.8 l 0,0.1 c 0,1 0.2,2 0.5,2.9 0.3,0.9 0.8,1.7 1.4,2.4 0.6,0.7 1.3,1.3 2.2,1.7 0.8,0.4 1.8,0.6 2.9,0.6 z"
                 id="path12137" />
              <path
                 inkscape:connector-curvature="0"
                 d="m 632.3,621.3 11.8,0 4.8,16.2 5.4,-16.3 9.7,0 5.4,16.3 4.8,-16.2 11.6,0 -11,34 -9.8,0 -5.9,-16.8 -5.9,16.8 -9.8,0 -11.1,-34 z"
                 id="path12139" />
            </g>
            <g
               id="g12141">
              <path
                 inkscape:connector-curvature="0"
                 d="m 465.5,579.3 11.3,0 4.6,15.5 5.2,-15.6 9.3,0 5.2,15.6 4.6,-15.5 11.1,0 -10.5,32.4 -9.4,0 -5.7,-16 -5.7,16 -9.4,0 -10.6,-32.4 z"
                 id="path12143" />
              <path
                 inkscape:connector-curvature="0"
                 d="m 518.6,579.3 27.4,0 0,8.8 -16.9,0 0,3.3 15.7,0 0,7.8 -15.7,0 0,3.5 17.1,0 0,8.8 -27.7,0 0,-32.2 z"
                 id="path12145" />
            </g>
            <g
               id="g12147">
              <path
                 inkscape:connector-curvature="0"
                 d="m 566.3,579.3 10.8,0 0,23 15.1,0 0,9.2 -25.9,0 0,-32.2 z"
                 id="path12149" />
              <path
                 inkscape:connector-curvature="0"
                 d="m 611.4,612.2 c -2.5,0 -4.8,-0.4 -6.9,-1.3 -2.1,-0.9 -4,-2 -5.6,-3.5 -1.6,-1.5 -2.8,-3.3 -3.7,-5.3 -0.9,-2 -1.3,-4.2 -1.3,-6.6 l 0,-0.1 c 0,-2.3 0.5,-4.5 1.4,-6.6 0.9,-2 2.1,-3.8 3.7,-5.3 1.6,-1.5 3.4,-2.7 5.6,-3.6 2.1,-0.9 4.5,-1.3 7,-1.3 2.5,0 4.8,0.4 6.9,1.3 2.1,0.9 4,2 5.6,3.5 1.6,1.5 2.8,3.3 3.7,5.3 0.9,2 1.3,4.2 1.3,6.6 l 0,0.1 c 0,2.3 -0.5,4.5 -1.4,6.6 -0.9,2 -2.1,3.8 -3.7,5.3 -1.6,1.5 -3.4,2.7 -5.6,3.6 -2.2,0.9 -4.6,1.3 -7,1.3 z m 0.1,-9.5 c 1,0 1.9,-0.2 2.8,-0.6 0.8,-0.4 1.5,-0.9 2.1,-1.6 0.6,-0.7 1,-1.4 1.3,-2.3 0.3,-0.9 0.5,-1.8 0.5,-2.7 l 0,-0.1 c 0,-1 -0.2,-1.9 -0.5,-2.7 -0.3,-0.9 -0.8,-1.6 -1.4,-2.3 -0.6,-0.7 -1.3,-1.2 -2.1,-1.6 -0.8,-0.4 -1.8,-0.6 -2.8,-0.6 -1,0 -1.9,0.2 -2.8,0.6 -0.8,0.4 -1.5,0.9 -2.1,1.6 -0.6,0.7 -1,1.4 -1.3,2.3 -0.3,0.9 -0.5,1.8 -0.5,2.7 l 0,0.1 c 0,1 0.2,1.9 0.5,2.7 0.3,0.9 0.8,1.6 1.4,2.3 0.6,0.7 1.3,1.2 2.1,1.6 0.8,0.4 1.7,0.6 2.8,0.6 z"
                 id="path12151" />
              <path
                 inkscape:connector-curvature="0"
                 d="m 629.6,579.3 12.1,0 6.3,18.1 6.3,-18.1 11.7,0 -13,32.5 -10.3,0 -13.1,-32.5 z"
                 id="path12153" />
              <path
                 inkscape:connector-curvature="0"
                 d="m 667.4,579.3 27.5,0 0,8.8 -16.9,0 0,3.3 15.7,0 0,7.8 -15.7,0 0,3.5 17.1,0 0,8.8 -27.7,0 0,-32.2 z"
                 id="path12155" />
            </g>
          </g>
        </g>
        <g
           id="g12157">
          <g
             id="g12159">
            <path
               style="fill:#ffffff"
               inkscape:connector-curvature="0"
               d="m 478.2,639.7 -12.7,-21.8 12.6,0 5.8,11.1 5.8,-11.1 12.5,0 -12.7,21.6 0,12.1 -11.3,0 0,-11.9 z"
               id="path12161" />
            <path
               style="fill:#ffffff"
               inkscape:connector-curvature="0"
               d="m 503.4,617.9 28.7,0 0,9.2 -17.7,0 0,3.4 16.5,0 0,8.1 -16.5,0 0,3.7 17.9,0 0,9.2 -29,0 0,-33.6 z"
               id="path12163" />
            <path
               style="fill:#ffffff"
               inkscape:connector-curvature="0"
               d="m 535.4,617.9 11.3,0 0,24.1 15.8,0 0,9.6 -27.1,0 0,-33.7 z"
               id="path12165" />
            <path
               style="fill:#ffffff"
               inkscape:connector-curvature="0"
               d="m 565,617.9 11.3,0 0,24.1 15.8,0 0,9.6 -27.1,0 0,-33.7 z"
               id="path12167" />
            <path
               style="fill:#ffffff"
               inkscape:connector-curvature="0"
               d="m 612.1,652.3 c -2.6,0 -5,-0.4 -7.2,-1.3 -2.2,-0.9 -4.2,-2.1 -5.8,-3.7 -1.7,-1.6 -2.9,-3.4 -3.9,-5.6 -0.9,-2.1 -1.4,-4.4 -1.4,-6.9 l 0,-0.1 c 0,-2.4 0.5,-4.7 1.4,-6.9 0.9,-2.1 2.2,-4 3.9,-5.6 1.7,-1.6 3.6,-2.8 5.9,-3.8 2.2,-0.9 4.7,-1.4 7.3,-1.4 2.6,0 5,0.5 7.2,1.3 2.2,0.9 4.2,2.1 5.8,3.7 1.7,1.6 2.9,3.4 3.9,5.6 0.9,2.1 1.4,4.4 1.4,6.9 l 0,0.1 c 0,2.4 -0.5,4.7 -1.4,6.9 -0.9,2.1 -2.2,4 -3.9,5.6 -1.7,1.6 -3.6,2.8 -5.9,3.8 -2.3,1 -4.7,1.4 -7.3,1.4 z m 0.1,-9.9 c 1.1,0 2,-0.2 2.9,-0.6 0.9,-0.4 1.6,-1 2.2,-1.7 0.6,-0.7 1.1,-1.5 1.4,-2.4 0.3,-0.9 0.5,-1.8 0.5,-2.8 l 0,-0.1 c 0,-1 -0.2,-1.9 -0.5,-2.9 -0.3,-0.9 -0.8,-1.7 -1.4,-2.4 -0.6,-0.7 -1.3,-1.3 -2.2,-1.7 -0.9,-0.4 -1.8,-0.6 -2.9,-0.6 -1.1,0 -2,0.2 -2.9,0.6 -0.9,0.4 -1.6,1 -2.2,1.7 -0.6,0.7 -1.1,1.5 -1.4,2.4 -0.3,0.9 -0.5,1.8 -0.5,2.8 l 0,0.1 c 0,1 0.2,2 0.5,2.9 0.3,0.9 0.8,1.7 1.4,2.4 0.6,0.7 1.3,1.3 2.2,1.7 0.8,0.4 1.8,0.6 2.9,0.6 z"
               id="path12169" />
            <path
               style="fill:#ffffff"
               inkscape:connector-curvature="0"
               d="m 631.7,617.9 11.8,0 4.8,16.2 5.4,-16.3 9.7,0 5.4,16.3 4.8,-16.2 11.6,0 -11,34 -9.8,0 -5.9,-16.8 -5.9,16.8 -9.8,0 -11.1,-34 z"
               id="path12171" />
          </g>
          <g
             id="g12173">
            <path
               style="fill:#ffffff"
               inkscape:connector-curvature="0"
               d="m 465,576 11.3,0 4.6,15.5 5.2,-15.6 9.3,0 5.2,15.6 4.6,-15.5 11.1,0 -10.5,32.4 -9.4,0 -5.7,-16 -5.7,16 -9.4,0 L 465,576 Z"
               id="path12175" />
            <path
               style="fill:#ffffff"
               inkscape:connector-curvature="0"
               d="m 518,576 27.5,0 0,8.8 -16.9,0 0,3.3 15.7,0 0,7.8 -15.7,0 0,3.5 17.1,0 0,8.8 -27.7,0 0,-32.2 z"
               id="path12177" />
          </g>
          <g
             id="g12179">
            <path
               style="fill:#ffffff"
               inkscape:connector-curvature="0"
               d="m 565.7,576 10.8,0 0,23 15.1,0 0,9.2 -25.9,0 0,-32.2 z"
               id="path12181" />
            <path
               style="fill:#ffffff"
               inkscape:connector-curvature="0"
               d="m 610.8,608.9 c -2.5,0 -4.8,-0.4 -6.9,-1.3 -2.1,-0.9 -4,-2 -5.6,-3.5 -1.6,-1.5 -2.8,-3.3 -3.7,-5.3 -0.9,-2 -1.3,-4.2 -1.3,-6.6 l 0,-0.1 c 0,-2.3 0.5,-4.5 1.4,-6.6 0.9,-2 2.1,-3.8 3.7,-5.3 1.6,-1.5 3.4,-2.7 5.6,-3.6 2.1,-0.9 4.5,-1.3 7,-1.3 2.5,0 4.8,0.4 6.9,1.3 2.1,0.9 4,2 5.6,3.5 1.6,1.5 2.8,3.3 3.7,5.3 0.9,2 1.3,4.2 1.3,6.6 l 0,0.1 c 0,2.3 -0.5,4.5 -1.4,6.6 -0.9,2 -2.1,3.8 -3.7,5.3 -1.6,1.5 -3.4,2.7 -5.6,3.6 -2.2,0.8 -4.5,1.3 -7,1.3 z m 0.1,-9.6 c 1,0 1.9,-0.2 2.8,-0.6 0.8,-0.4 1.5,-0.9 2.1,-1.6 0.6,-0.7 1,-1.4 1.3,-2.3 0.3,-0.9 0.5,-1.8 0.5,-2.7 l 0,-0.1 c 0,-1 -0.2,-1.9 -0.5,-2.7 -0.3,-0.9 -0.8,-1.6 -1.4,-2.3 -0.6,-0.7 -1.3,-1.2 -2.1,-1.6 -0.8,-0.4 -1.8,-0.6 -2.8,-0.6 -1,0 -1.9,0.2 -2.8,0.6 -0.8,0.4 -1.5,0.9 -2.1,1.6 -0.6,0.7 -1,1.4 -1.3,2.3 -0.3,0.9 -0.5,1.8 -0.5,2.7 l 0,0.1 c 0,1 0.2,1.9 0.5,2.7 0.3,0.9 0.8,1.6 1.4,2.3 0.6,0.7 1.3,1.2 2.1,1.6 0.8,0.4 1.8,0.6 2.8,0.6 z"
               id="path12183" />
            <path
               style="fill:#ffffff"
               inkscape:connector-curvature="0"
               d="m 629,576 12.1,0 6.3,18.1 6.3,-18.1 11.9,0 -13.1,32.4 -10.3,0 L 629,576 Z"
               id="path12185" />
            <path
               style="fill:#ffffff"
               inkscape:connector-curvature="0"
               d="m 666.8,576 27.5,0 0,8.8 -16.9,0 0,3.3 15.7,0 0,7.8 -15.7,0 0,3.5 17.1,0 0,8.8 -27.7,0 0,-32.2 z"
               id="path12187" />
          </g>
        </g>
      </g>
      <g
         id="g12189">
        <path
           style="opacity:0.1"
           inkscape:connector-curvature="0"
           d="m 478.6,678.4 c -1.6,1.1 -3.4,1.6 -5.4,1.6 -1,0 -1.9,-0.1 -2.7,-0.3 -0.8,-0.2 -1.5,-0.6 -2.1,-1 -0.6,-0.4 -1.1,-1 -1.4,-1.6 -0.3,-0.6 -0.5,-1.4 -0.5,-2.2 l 0,-0.1 c 0,-1.1 0.3,-2 0.9,-2.9 0.6,-0.9 1.6,-1.6 2.9,-2.2 -0.4,-0.6 -0.7,-1.1 -0.8,-1.7 -0.2,-0.5 -0.3,-1.1 -0.3,-1.6 l 0,-0.1 c 0,-0.7 0.1,-1.3 0.4,-1.9 0.3,-0.6 0.7,-1.1 1.2,-1.6 0.5,-0.4 1.1,-0.8 1.8,-1.1 0.7,-0.3 1.5,-0.4 2.4,-0.4 0.9,0 1.6,0.1 2.3,0.4 0.7,0.2 1.3,0.6 1.8,1 0.5,0.4 0.9,0.9 1.1,1.5 0.3,0.6 0.4,1.2 0.4,1.8 l 0,0.1 c 0,1 -0.3,1.9 -0.9,2.7 -0.6,0.8 -1.4,1.4 -2.3,1.9 l 1.6,1.6 c 0.3,-0.4 0.6,-0.8 0.8,-1.2 0.3,-0.4 0.5,-0.9 0.8,-1.4 l 3.6,1.7 c -0.4,0.7 -0.8,1.4 -1.2,2 -0.4,0.6 -0.8,1.2 -1.2,1.7 l 2.2,2.1 -3.8,2.8 -1.6,-1.6 z m -4.5,-2.5 c 0.3,0 0.5,0 0.8,-0.1 0.3,-0.1 0.6,-0.2 0.9,-0.4 l -2.5,-2.5 c -0.3,0.2 -0.6,0.5 -0.7,0.7 -0.1,0.3 -0.2,0.5 -0.2,0.8 l 0,0.1 c 0,0.4 0.2,0.8 0.5,1 0.3,0.3 0.7,0.4 1.2,0.4 z m 0.6,-7.5 c 0.5,-0.3 0.8,-0.6 1.1,-0.9 0.2,-0.3 0.3,-0.7 0.3,-1.1 l 0,-0.1 c 0,-0.4 -0.1,-0.7 -0.3,-0.9 -0.2,-0.2 -0.5,-0.3 -0.8,-0.3 -0.3,0 -0.6,0.1 -0.8,0.4 -0.2,0.2 -0.3,0.6 -0.3,1 l 0,0.1 c 0,0.3 0.1,0.6 0.2,0.9 0.2,0.2 0.3,0.6 0.6,0.9 z"
           id="path12191" />
        <path
           style="fill:#ffffff"
           inkscape:connector-curvature="0"
           d="m 477.8,674.9 c -1.6,1.1 -3.4,1.6 -5.4,1.6 -1,0 -1.9,-0.1 -2.7,-0.3 -0.8,-0.2 -1.5,-0.6 -2.1,-1 -0.6,-0.4 -1.1,-1 -1.4,-1.6 -0.3,-0.6 -0.5,-1.4 -0.5,-2.2 l 0,-0.1 c 0,-1.1 0.3,-2 0.9,-2.9 0.6,-0.9 1.6,-1.6 2.9,-2.2 -0.4,-0.6 -0.7,-1.1 -0.8,-1.7 -0.2,-0.5 -0.3,-1.1 -0.3,-1.6 l 0,-0.1 c 0,-0.7 0.1,-1.3 0.4,-1.9 0.3,-0.6 0.7,-1.1 1.2,-1.6 0.5,-0.4 1.1,-0.8 1.8,-1.1 0.7,-0.3 1.5,-0.4 2.4,-0.4 0.9,0 1.6,0.1 2.3,0.4 0.7,0.2 1.3,0.6 1.8,1 0.5,0.4 0.9,0.9 1.1,1.5 0.3,0.6 0.4,1.2 0.4,1.8 l 0,0.1 c 0,1 -0.3,1.9 -0.9,2.7 -0.6,0.8 -1.4,1.4 -2.3,1.9 l 1.6,1.6 c 0.3,-0.4 0.6,-0.8 0.8,-1.2 0.3,-0.4 0.5,-0.9 0.8,-1.4 l 3.6,1.7 c -0.4,0.7 -0.8,1.4 -1.2,2 -0.4,0.6 -0.8,1.2 -1.2,1.7 l 2.2,2.1 -3.8,2.8 -1.6,-1.6 z m -4.5,-2.4 c 0.3,0 0.5,0 0.8,-0.1 0.3,-0.1 0.6,-0.2 0.9,-0.4 l -2.5,-2.5 c -0.3,0.2 -0.6,0.5 -0.7,0.7 -0.1,0.3 -0.2,0.5 -0.2,0.8 l 0,0.1 c 0,0.4 0.2,0.8 0.5,1 0.3,0.3 0.7,0.4 1.2,0.4 z m 0.6,-7.5 c 0.5,-0.3 0.8,-0.6 1.1,-0.9 0.2,-0.3 0.3,-0.7 0.3,-1.1 l 0,-0.1 c 0,-0.4 -0.1,-0.7 -0.3,-0.9 -0.2,-0.2 -0.5,-0.3 -0.8,-0.3 -0.3,0 -0.6,0.1 -0.8,0.4 -0.2,0.2 -0.3,0.6 -0.3,1 l 0,0.1 c 0,0.3 0.1,0.6 0.2,0.9 0.2,0.2 0.4,0.5 0.6,0.9 z"
           id="path12193" />
        <g
           id="g12195">
          <g
             style="opacity:0.1"
             id="g12197">
            <g
               id="g12199">
              <path
                 inkscape:connector-curvature="0"
                 d="m 500.1,680.1 c -1.3,0 -2.6,-0.2 -3.7,-0.6 -1.2,-0.4 -2.2,-1 -3,-1.8 -0.9,-0.8 -1.5,-1.7 -2,-2.8 -0.5,-1.1 -0.7,-2.3 -0.7,-3.6 l 0,0 c 0,-1.3 0.2,-2.4 0.7,-3.5 0.5,-1.1 1.1,-2 2,-2.8 0.8,-0.8 1.8,-1.4 3,-1.9 1.1,-0.4 2.4,-0.7 3.7,-0.7 1.5,0 2.8,0.2 4,0.7 1.2,0.5 2.2,1.1 3.1,1.9 l -3.2,3.8 c -0.6,-0.5 -1.2,-0.8 -1.8,-1.1 -0.6,-0.3 -1.3,-0.4 -2,-0.4 -0.6,0 -1.1,0.1 -1.5,0.3 -0.5,0.2 -0.9,0.5 -1.2,0.8 -0.3,0.4 -0.6,0.8 -0.8,1.3 -0.2,0.5 -0.3,1 -0.3,1.6 l 0,0 c 0,0.6 0.1,1.1 0.3,1.7 0.2,0.5 0.5,0.9 0.8,1.3 0.4,0.4 0.8,0.6 1.3,0.8 0.5,0.2 1,0.3 1.6,0.3 0.5,0 0.9,0 1.2,-0.1 0.3,-0.1 0.6,-0.2 0.8,-0.3 l 0,-1.7 -2.9,0 0,-3.6 8.2,0 0,7.8 c -0.9,0.8 -2,1.4 -3.3,1.8 -1.3,0.6 -2.7,0.8 -4.3,0.8 z"
                 id="path12201" />
              <path
                 inkscape:connector-curvature="0"
                 d="m 518.2,680.1 c -1.3,0 -2.5,-0.2 -3.7,-0.7 -1.1,-0.5 -2.1,-1.1 -2.9,-1.9 -0.8,-0.8 -1.5,-1.7 -2,-2.8 -0.5,-1.1 -0.7,-2.2 -0.7,-3.5 l 0,0 c 0,-1.2 0.2,-2.4 0.7,-3.5 0.5,-1.1 1.1,-2 2,-2.8 0.8,-0.8 1.8,-1.4 2.9,-1.9 1.1,-0.5 2.4,-0.7 3.7,-0.7 1.3,0 2.5,0.2 3.7,0.7 1.1,0.5 2.1,1.1 2.9,1.9 0.8,0.8 1.5,1.7 2,2.8 0.5,1.1 0.7,2.2 0.7,3.5 l 0,0 c 0,1.2 -0.2,2.4 -0.7,3.5 -0.5,1.1 -1.1,2 -2,2.8 -0.8,0.8 -1.8,1.4 -2.9,1.9 -1.2,0.5 -2.4,0.7 -3.7,0.7 z m 0,-5 c 0.5,0 1,-0.1 1.5,-0.3 0.4,-0.2 0.8,-0.5 1.1,-0.8 0.3,-0.3 0.5,-0.7 0.7,-1.2 0.2,-0.5 0.2,-0.9 0.2,-1.4 l 0,0 c 0,-0.5 -0.1,-1 -0.3,-1.4 -0.2,-0.5 -0.4,-0.9 -0.7,-1.2 -0.3,-0.4 -0.7,-0.6 -1.1,-0.8 -0.4,-0.2 -0.9,-0.3 -1.5,-0.3 -0.5,0 -1,0.1 -1.5,0.3 -0.4,0.2 -0.8,0.5 -1.1,0.8 -0.3,0.3 -0.5,0.7 -0.7,1.2 -0.2,0.5 -0.2,0.9 -0.2,1.4 l 0,0 c 0,0.5 0.1,1 0.3,1.4 0.2,0.5 0.4,0.9 0.7,1.2 0.3,0.4 0.7,0.6 1.1,0.8 0.5,0.2 1,0.3 1.5,0.3 z"
                 id="path12203" />
              <path
                 inkscape:connector-curvature="0"
                 d="m 533.3,667.5 -5,0 0,-4.8 15.7,0 0,4.8 -5,0 0,12.2 -5.7,0 0,-12.2 z"
                 id="path12205" />
              <path
                 inkscape:connector-curvature="0"
                 d="m 545.3,662.7 5.7,0 0,6 5.2,0 0,-6 5.7,0 0,17 -5.7,0 0,-6.1 -5.2,0 0,6.1 -5.7,0 0,-17 z"
                 id="path12207" />
              <path
                 inkscape:connector-curvature="0"
                 d="m 569.7,662.6 5.6,0 7.2,17.1 -6.2,0 -0.9,-2.3 -5.9,0 -0.9,2.3 -6.1,0 7.2,-17.1 z m 4.3,10.8 -1.6,-4.1 -1.6,4.1 3.2,0 z"
                 id="path12209" />
              <path
                 inkscape:connector-curvature="0"
                 d="m 583.2,662.7 5.9,0 3.6,6 3.6,-6 5.9,0 0,17 -5.7,0 0,-8.4 -3.9,6 -0.1,0 -3.9,-6 0,8.4 -5.5,0 0,-17 z"
                 id="path12211" />
            </g>
            <g
               id="g12213">
              <path
                 inkscape:connector-curvature="0"
                 d="m 618.9,680 c -1.3,0 -2.4,-0.2 -3.5,-0.5 -1,-0.3 -1.9,-0.8 -2.7,-1.4 -0.7,-0.7 -1.3,-1.5 -1.7,-2.5 -0.4,-1 -0.6,-2.2 -0.6,-3.7 l 0,-9.5 5.8,0 0,9.4 c 0,1.1 0.2,1.8 0.7,2.3 0.5,0.5 1.1,0.7 1.9,0.7 0.8,0 1.4,-0.2 1.9,-0.7 0.5,-0.4 0.7,-1.2 0.7,-2.2 l 0,-9.5 5.8,0 0,9.3 c 0,1.5 -0.2,2.7 -0.6,3.8 -0.4,1 -1,1.9 -1.7,2.5 -0.7,0.7 -1.6,1.1 -2.7,1.4 -0.8,0.4 -2,0.6 -3.3,0.6 z"
                 id="path12215" />
              <path
                 inkscape:connector-curvature="0"
                 d="m 629.3,662.5 5.7,0 0,12.3 8.1,0 0,4.9 -13.8,0 0,-17.2 z"
                 id="path12217" />
              <path
                 inkscape:connector-curvature="0"
                 d="m 648.7,667.4 -5,0 0,-4.9 15.8,0 0,4.9 -5,0 0,12.3 -5.7,0 0,-12.3 z"
                 id="path12219" />
              <path
                 inkscape:connector-curvature="0"
                 d="m 660.8,662.5 8.4,0 c 1.5,0 2.8,0.2 3.8,0.5 1,0.4 1.8,0.8 2.4,1.4 0.5,0.5 0.9,1.1 1.2,1.8 0.3,0.7 0.4,1.4 0.4,2.3 l 0,0 c 0,1.3 -0.3,2.3 -0.9,3.2 -0.6,0.9 -1.4,1.6 -2.5,2.1 l 4,5.8 -6.6,0 -3.2,-4.9 0,0 -1.2,0 0,4.9 -5.7,0 0,-17.1 z m 8.2,8.2 c 0.7,0 1.2,-0.1 1.6,-0.4 0.4,-0.3 0.6,-0.7 0.6,-1.2 l 0,0 c 0,-0.6 -0.2,-1 -0.6,-1.2 -0.4,-0.3 -0.9,-0.4 -1.6,-0.4 l -2.5,0 0,3.4 2.5,0 z"
                 id="path12221" />
              <path
                 inkscape:connector-curvature="0"
                 d="m 684.3,662.4 5.7,0 7.2,17.3 -6.2,0 -0.9,-2.3 -6,0 -0.9,2.3 -6.1,0 7.2,-17.3 z m 4.4,10.9 -1.6,-4.2 -1.6,4.2 3.2,0 z"
                 id="path12223" />
            </g>
          </g>
          <g
             id="g12225">
            <g
               id="g12227">
              <path
                 style="fill:#ffffff"
                 inkscape:connector-curvature="0"
                 d="m 500.1,677 c -1.3,0 -2.6,-0.2 -3.7,-0.6 -1.2,-0.4 -2.2,-1 -3,-1.8 -0.9,-0.8 -1.5,-1.7 -2,-2.8 -0.5,-1.1 -0.7,-2.3 -0.7,-3.6 l 0,0 c 0,-1.3 0.2,-2.4 0.7,-3.5 0.5,-1.1 1.1,-2 2,-2.8 0.8,-0.8 1.8,-1.4 3,-1.9 1.1,-0.4 2.4,-0.7 3.7,-0.7 1.5,0 2.8,0.2 4,0.7 1.2,0.5 2.2,1.1 3.1,1.9 l -3.2,3.8 c -0.6,-0.5 -1.2,-0.8 -1.8,-1.1 -0.6,-0.3 -1.3,-0.4 -2,-0.4 -0.6,0 -1.1,0.1 -1.5,0.3 -0.5,0.2 -0.9,0.5 -1.2,0.8 -0.3,0.4 -0.6,0.8 -0.8,1.3 -0.2,0.5 -0.3,1 -0.3,1.6 l 0,0 c 0,0.6 0.1,1.1 0.3,1.7 0.2,0.5 0.5,0.9 0.8,1.3 0.4,0.4 0.8,0.6 1.3,0.8 0.5,0.2 1,0.3 1.6,0.3 0.5,0 0.9,0 1.2,-0.1 0.3,-0.1 0.6,-0.2 0.8,-0.3 l 0,-1.7 -2.9,0 0,-3.6 8.2,0 0,7.8 c -0.9,0.8 -2,1.4 -3.3,1.8 -1.3,0.6 -2.7,0.8 -4.3,0.8 z"
                 id="path12229" />
              <path
                 style="fill:#ffffff"
                 inkscape:connector-curvature="0"
                 d="m 518.2,677 c -1.3,0 -2.5,-0.2 -3.7,-0.7 -1.1,-0.5 -2.1,-1.1 -2.9,-1.9 -0.8,-0.8 -1.5,-1.7 -2,-2.8 -0.5,-1.1 -0.7,-2.2 -0.7,-3.5 l 0,0 c 0,-1.2 0.2,-2.4 0.7,-3.5 0.5,-1.1 1.1,-2 2,-2.8 0.8,-0.8 1.8,-1.4 2.9,-1.9 1.1,-0.5 2.4,-0.7 3.7,-0.7 1.3,0 2.5,0.2 3.7,0.7 1.1,0.5 2.1,1.1 2.9,1.9 0.8,0.8 1.5,1.7 2,2.8 0.5,1.1 0.7,2.2 0.7,3.5 l 0,0 c 0,1.2 -0.2,2.4 -0.7,3.5 -0.5,1.1 -1.1,2 -2,2.8 -0.8,0.8 -1.8,1.4 -2.9,1.9 -1.2,0.5 -2.4,0.7 -3.7,0.7 z m 0,-5 c 0.5,0 1,-0.1 1.5,-0.3 0.4,-0.2 0.8,-0.5 1.1,-0.8 0.3,-0.3 0.5,-0.7 0.7,-1.2 0.2,-0.5 0.2,-0.9 0.2,-1.4 l 0,0 c 0,-0.5 -0.1,-1 -0.3,-1.4 -0.2,-0.5 -0.4,-0.9 -0.7,-1.2 -0.3,-0.4 -0.7,-0.6 -1.1,-0.8 -0.4,-0.2 -0.9,-0.3 -1.5,-0.3 -0.5,0 -1,0.1 -1.5,0.3 -0.4,0.2 -0.8,0.5 -1.1,0.8 -0.3,0.3 -0.5,0.7 -0.7,1.2 -0.2,0.5 -0.2,0.9 -0.2,1.4 l 0,0 c 0,0.5 0.1,1 0.3,1.4 0.2,0.5 0.4,0.9 0.7,1.2 0.3,0.4 0.7,0.6 1.1,0.8 0.5,0.2 1,0.3 1.5,0.3 z"
                 id="path12231" />
              <path
                 style="fill:#ffffff"
                 inkscape:connector-curvature="0"
                 d="m 533.3,664.5 -5,0 0,-4.8 15.7,0 0,4.8 -5,0 0,12.2 -5.7,0 0,-12.2 z"
                 id="path12233" />
              <path
                 style="fill:#ffffff"
                 inkscape:connector-curvature="0"
                 d="m 545.3,659.7 5.7,0 0,6 5.2,0 0,-6 5.7,0 0,17 -5.7,0 0,-6.1 -5.2,0 0,6.1 -5.7,0 0,-17 z"
                 id="path12235" />
              <path
                 style="fill:#ffffff"
                 inkscape:connector-curvature="0"
                 d="m 569.7,659.6 5.6,0 7.2,17.1 -6.2,0 -0.9,-2.3 -5.9,0 -0.9,2.3 -6.1,0 7.2,-17.1 z m 4.3,10.8 -1.6,-4.1 -1.6,4.1 3.2,0 z"
                 id="path12237" />
              <path
                 style="fill:#ffffff"
                 inkscape:connector-curvature="0"
                 d="m 583.2,659.7 5.9,0 3.6,6 3.6,-6 5.9,0 0,17 -5.7,0 0,-8.4 -3.9,6 -0.1,0 -3.9,-6 0,8.4 -5.5,0 0,-17 z"
                 id="path12239" />
            </g>
            <g
               id="g12241">
              <path
                 style="fill:#ffffff"
                 inkscape:connector-curvature="0"
                 d="m 618.9,676.9 c -1.3,0 -2.4,-0.2 -3.5,-0.5 -1,-0.3 -1.9,-0.8 -2.7,-1.4 -0.7,-0.7 -1.3,-1.5 -1.7,-2.5 -0.4,-1 -0.6,-2.2 -0.6,-3.7 l 0,-9.5 5.8,0 0,9.4 c 0,1.1 0.2,1.8 0.7,2.3 0.5,0.5 1.1,0.7 1.9,0.7 0.8,0 1.4,-0.2 1.9,-0.7 0.5,-0.4 0.7,-1.2 0.7,-2.2 l 0,-9.5 5.8,0 0,9.3 c 0,1.5 -0.2,2.7 -0.6,3.8 -0.4,1 -1,1.9 -1.7,2.5 -0.7,0.7 -1.6,1.1 -2.7,1.4 -0.8,0.5 -2,0.6 -3.3,0.6 z"
                 id="path12243" />
              <path
                 style="fill:#ffffff"
                 inkscape:connector-curvature="0"
                 d="m 629.3,659.4 5.7,0 0,12.3 8.1,0 0,4.9 -13.8,0 0,-17.2 z"
                 id="path12245" />
              <path
                 style="fill:#ffffff"
                 inkscape:connector-curvature="0"
                 d="m 648.7,664.3 -5,0 0,-4.9 15.8,0 0,4.9 -5,0 0,12.3 -5.7,0 0,-12.3 z"
                 id="path12247" />
              <path
                 style="fill:#ffffff"
                 inkscape:connector-curvature="0"
                 d="m 660.8,659.4 8.4,0 c 1.5,0 2.8,0.2 3.8,0.5 1,0.4 1.8,0.8 2.4,1.4 0.5,0.5 0.9,1.1 1.2,1.8 0.3,0.7 0.4,1.4 0.4,2.3 l 0,0 c 0,1.3 -0.3,2.3 -0.9,3.2 -0.6,0.9 -1.4,1.6 -2.5,2.1 l 4,5.8 -6.6,0 -3.2,-4.9 0,0 -1.2,0 0,4.9 -5.7,0 0,-17.1 z m 8.2,8.2 c 0.7,0 1.2,-0.1 1.6,-0.4 0.4,-0.3 0.6,-0.7 0.6,-1.2 l 0,0 c 0,-0.6 -0.2,-1 -0.6,-1.2 -0.4,-0.3 -0.9,-0.4 -1.6,-0.4 l -2.5,0 0,3.4 2.5,0 z"
                 id="path12249" />
              <path
                 style="fill:#ffffff"
                 inkscape:connector-curvature="0"
                 d="m 684.3,659.3 5.7,0 7.2,17.3 -6.2,0 -0.9,-2.3 -6,0 -0.9,2.3 -6.1,0 7.2,-17.3 z m 4.4,10.9 -1.6,-4.2 -1.6,4.2 3.2,0 z"
                 id="path12251" />
            </g>
          </g>
        </g>
      </g>
    </g>
  </g>
</svg>
